<svg id="Layer_1" fill="#e63946" enable-background="new 0 0 64 64" height="512" viewBox="0 0 64 64" width="512" xmlns="http://www.w3.org/2000/svg"><g><g id="LWPOLYLINE_20_"><g><path d="m32.032 57.996c-6.414 0-12.82-1.087-18.881-3.229l-3.561-1.259c-1.041-.368-1.587-1.511-1.219-2.552.368-1.042 1.512-1.586 2.553-1.219l3.561 1.259c8.115 2.869 16.9 3.701 25.409 2.409 1.085-.167 2.112.584 2.278 1.676s-.585 2.112-1.677 2.278c-2.802.425-5.634.637-8.463.637z"/></g></g><g id="LWPOLYLINE_19_"><g><path d="m8.806 51.529c-.022 0-.045 0-.067-.001-1.104-.037-1.969-.961-1.933-2.065.283-8.578 4.917-15.908 12.092-19.129 7.598-3.411 17.717-3.484 25.779-.186 1.022.418 1.513 1.586 1.095 2.608-.419 1.022-1.585 1.513-2.608 1.094-7.1-2.902-15.98-2.851-22.627.133-5.771 2.59-9.5 8.573-9.732 15.611-.037 1.083-.925 1.935-1.999 1.935z"/></g></g><g id="LINE_247_"><g><path d="m39.758 50.243c-.512 0-1.023-.195-1.414-.586-.781-.781-.781-2.047 0-2.828l8.484-8.485c.781-.781 2.047-.781 2.828 0s.781 2.047 0 2.828l-8.484 8.485c-.391.391-.902.586-1.414.586z"/></g></g><g id="LINE_246_"><g><path d="m48.242 50.243c-.512 0-1.023-.195-1.414-.586l-8.484-8.485c-.781-.781-.781-2.047 0-2.828s2.047-.781 2.828 0l8.484 8.485c.781.781.781 2.047 0 2.828-.39.391-.902.586-1.414.586z"/></g></g><g id="CIRCLE_4_"><g><path d="m43.906 57.991c-1.344 0-2.682-.199-3.976-.592-4.955-1.503-8.762-5.763-9.698-10.851-.954-5.177 1.146-10.57 5.352-13.738 2.394-1.803 5.392-2.796 8.441-2.796 2.206 0 4.395.521 6.327 1.507 4.646 2.371 7.648 7.269 7.648 12.479 0 3.762-1.515 7.299-4.264 9.961-2.645 2.561-6.228 4.03-9.83 4.03zm.119-23.976c-2.188 0-4.33.707-6.035 1.991-3.005 2.264-4.506 6.118-3.824 9.818.669 3.633 3.388 6.674 6.927 7.747.917.278 1.863.419 2.813.42h.002c2.572 0 5.141-1.059 7.047-2.904 1.963-1.901 3.045-4.418 3.045-7.087 0-3.722-2.146-7.221-5.466-8.915-1.372-.7-2.931-1.07-4.509-1.07z"/></g></g><g id="ARC_159_"><g><path d="m10.258 53.623c-.222 0-.446-.037-.667-.115-1.696-.6-2.815-2.212-2.786-4.011.019-1.093.91-1.967 1.999-1.967h.034c1.104.018 1.985.928 1.967 2.033-.002.078.047.148.12.174 1.042.369 1.587 1.511 1.219 2.553-.291.82-1.063 1.333-1.886 1.333z"/></g></g><g id="CIRCLE_7_"><g><path d="m32.051 31.813c-4.515 0-8.764-2.379-11.09-6.208-2.804-4.613-2.359-10.744 1.079-14.909 2.42-2.934 6.164-4.685 10.016-4.685 1.507 0 2.98.26 4.382.773 5.066 1.855 8.471 6.728 8.471 12.125 0 6.106-4.336 11.425-10.311 12.647-.834.171-1.692.257-2.547.257zm.005-21.802c-2.671 0-5.262 1.208-6.931 3.231-2.373 2.875-2.68 7.104-.746 10.286 1.606 2.644 4.546 4.286 7.672 4.286.587 0 1.174-.059 1.745-.176 4.055-.829 7.112-4.582 7.112-8.728 0-3.667-2.404-7.109-5.846-8.369-.958-.352-1.97-.53-3.006-.53z"/></g></g></g></svg>