<svg id="Layer_1" fill="#ffb703" enable-background="new 0 0 64 64" height="512" viewBox="0 0 64 64" width="512" xmlns="http://www.w3.org/2000/svg"><g><path d="m18.565 23.435c-.512 0-1.023-.195-1.414-.586-.781-.781-.781-2.047 0-2.828l13.435-13.435c.781-.781 2.047-.781 2.828 0s.781 2.047 0 2.828l-13.435 13.435c-.39.391-.902.586-1.414.586z"/></g><g><path d="m45.435 23.435c-.512 0-1.023-.195-1.414-.586l-13.435-13.435c-.781-.781-.781-2.047 0-2.828s2.047-.781 2.828 0l13.435 13.435c.781.781.781 2.047 0 2.828-.391.391-.903.586-1.414.586z"/></g><g><path d="m32 48c-1.104 0-2-.896-2-2v-38c0-1.104.896-2 2-2s2 .896 2 2v38c0 1.104-.896 2-2 2z"/></g><g><path d="m54 58c-1.104 0-2-.896-2-2s.896-2 2-2h.003c0-1.104.894-2 1.998-2s1.999.896 1.999 2c0 2.206-1.794 4-4 4z"/></g><g><path d="m56 56c-1.104 0-2-.896-2-2v-14c0-1.104.896-2 2-2s2 .896 2 2v14c0 1.104-.896 2-2 2z"/></g><g><path d="m54 58h-44c-1.104 0-2-.896-2-2s.896-2 2-2h44c1.104 0 2 .896 2 2s-.896 2-2 2z"/></g><g><path d="m10 58c-2.206 0-4-1.794-4-4 0-1.104.896-2 2-2s2 .896 2 2v.002c1.104 0 2 .894 2 1.999s-.896 1.999-2 1.999z"/></g><g><path d="m8 56c-1.104 0-2-.896-2-2v-14c0-1.104.896-2 2-2s2 .896 2 2v14c0 1.104-.896 2-2 2z"/></g></svg>