<svg id="Layer_1" fill="#FFF" enable-background="new 0 0 64 64" height="512" viewBox="0 0 64 64" width="512" xmlns="http://www.w3.org/2000/svg"><g><g id="CIRCLE_25_"><g><path d="m32 22c-4.411 0-8-3.589-8-8s3.589-8 8-8 8 3.589 8 8-3.589 8-8 8zm0-12c-2.168 0-4 1.832-4 4s1.832 4 4 4 4-1.832 4-4-1.832-4-4-4z"/></g></g><g id="CIRCLE_26_"><g><path d="m32 58c-4.411 0-8-3.589-8-8s3.589-8 8-8 8 3.589 8 8-3.589 8-8 8zm0-12c-2.168 0-4 1.832-4 4s1.832 4 4 4 4-1.832 4-4-1.832-4-4-4z"/></g></g><g id="CIRCLE_27_"><g><path d="m32 40c-4.411 0-8-3.589-8-8s3.589-8 8-8 8 3.589 8 8-3.589 8-8 8zm0-12c-2.168 0-4 1.832-4 4s1.832 4 4 4 4-1.832 4-4-1.832-4-4-4z"/></g></g></g></svg>