<svg id="Layer_1" fill="#9a031e" enable-background="new 0 0 64 64" height="512" viewBox="0 0 64 64" width="512" xmlns="http://www.w3.org/2000/svg"><g><path d="m11.446 41.394c-.631 0-1.251-.297-1.641-.853-.633-.905-.413-2.152.491-2.786l41.112-28.787c.908-.633 2.152-.412 2.786.491.633.905.413 2.152-.491 2.786l-41.111 28.787c-.35.244-.75.362-1.146.362z"/></g><g><path d="m32 58c-1.104 0-2-.896-2-2v-8c0-1.104.896-2 2-2s2 .896 2 2v8c0 1.104-.896 2-2 2z"/></g><g><path d="m16 34c-1.104 0-2-.896-2-2v-7c0-1.104.896-2 2-2s2 .896 2 2v7c0 1.104-.896 2-2 2z"/></g><g><path d="m48 34c-1.104 0-2-.896-2-2v-7c0-1.104.896-2 2-2s2 .896 2 2v7c0 1.104-.896 2-2 2z"/></g><g><path d="m32 50c-9.757 0-18-8.243-18-18 0-1.104.896-2 2-2s2 .896 2 2c0 7.589 6.411 14 14 14s14-6.411 14-14c0-1.104.896-2 2-2s2 .896 2 2c0 9.757-8.243 18-18 18z"/></g><g><path d="m40 58h-16c-1.104 0-2-.896-2-2s.896-2 2-2h16c1.104 0 2 .896 2 2s-.896 2-2 2z"/></g><g><path d="m22 34c-1.104 0-2-.896-2-2v-14c0-1.104.896-2 2-2s2 .896 2 2v14c0 1.104-.896 2-2 2z"/></g><g><path d="m42 34c-1.104 0-2-.896-2-2v-14c0-1.104.896-2 2-2s2 .896 2 2v14c0 1.104-.896 2-2 2z"/></g><g><path d="m32 44c-6.505 0-12-5.495-12-12 0-1.104.896-2 2-2s2 .896 2 2c0 4.337 3.663 8 8 8s8-3.663 8-8c0-1.104.896-2 2-2s2 .896 2 2c0 6.505-5.495 12-12 12z"/></g><g><path d="m42 20c-1.104 0-2-.896-2-2 0-4.337-3.663-8-8-8s-8 3.663-8 8c0 1.104-.896 2-2 2s-2-.896-2-2c0-6.505 5.495-12 12-12s12 5.495 12 12c0 1.104-.896 2-2 2z"/></g></svg>