<svg height="512" viewBox="0 0 32 32" width="512" xmlns="http://www.w3.org/2000/svg"><g id="no_signal_error_inland_rural" data-name="no, signal, error, inland, rural"><path d="m25.707 18.293a.9994.9994 0 0 0 -1.414 0l-2.293 2.2929-2.293-2.2929a1 1 0 0 0 -1.414 1.414l2.2929 2.293-2.2929 2.293a1 1 0 1 0 1.414 1.414l2.293-2.2929 2.293 2.2929a1 1 0 0 0 1.414-1.414l-2.2929-2.293 2.2929-2.293a.9994.9994 0 0 0 0-1.414z"/><path d="m25 6a1 1 0 0 0 -1 1v8a1 1 0 0 0 2 0v-8a1 1 0 0 0 -1-1z"/><path d="m19 16a1 1 0 0 0 1-1v-3.5a1 1 0 0 0 -2 0v3.5a1 1 0 0 0 1 1z"/><path d="m13 15a1 1 0 0 0 -1 1v9a1 1 0 0 0 2 0v-9a1 1 0 0 0 -1-1z"/><path d="m7 19.5a1 1 0 0 0 -1 1v4.5a1 1 0 0 0 2 0v-4.5a1 1 0 0 0 -1-1z"/></g></svg>