<svg id="Layer_1" enable-background="new 0 0 64 64" height="512" viewBox="0 0 64 64" width="512" xmlns="http://www.w3.org/2000/svg"><g><path d="m37.5 56h-11c-1.104 0-2-.896-2-2s.896-2 2-2h11c1.104 0 2 .896 2 2s-.896 2-2 2z"/></g><g><path d="m26.5 56c-1.104 0-2-.896-2-2v-29.334c0-1.104.896-2 2-2s2 .896 2 2v29.334c0 1.104-.896 2-2 2z"/></g><g><path d="m37.5 26.666h-11c-1.104 0-2-.896-2-2s.896-2 2-2h11c1.104 0 2 .896 2 2s-.896 2-2 2z"/></g><g><path d="m37.5 56c-1.104 0-2-.896-2-2v-29.334c0-1.104.896-2 2-2s2 .896 2 2v29.334c0 1.104-.896 2-2 2z"/></g><g><path d="m45 56c-1.104 0-2-.896-2-2v-44c0-1.104.896-2 2-2s2 .896 2 2v44c0 1.104-.896 2-2 2z"/></g><g><path d="m56 12h-11c-1.104 0-2-.896-2-2s.896-2 2-2h11c1.104 0 2 .896 2 2s-.896 2-2 2z"/></g><g><path d="m56 56h-11c-1.104 0-2-.896-2-2s.896-2 2-2h11c1.104 0 2 .896 2 2s-.896 2-2 2z"/></g><g><path d="m19 41.334h-11c-1.104 0-2-.896-2-2s.896-2 2-2h11c1.104 0 2 .896 2 2s-.896 2-2 2z"/></g><g><path d="m19 56c-1.104 0-2-.896-2-2v-14.666c0-1.104.896-2 2-2s2 .896 2 2v14.666c0 1.104-.896 2-2 2z"/></g><g><path d="m19 56h-11c-1.104 0-2-.896-2-2s.896-2 2-2h11c1.104 0 2 .896 2 2s-.896 2-2 2z"/></g><g><path d="m56 56c-1.104 0-2-.896-2-2v-44c0-1.104.896-2 2-2s2 .896 2 2v44c0 1.104-.896 2-2 2z"/></g><g><path d="m8 56c-1.104 0-2-.896-2-2v-14.666c0-1.104.896-2 2-2s2 .896 2 2v14.666c0 1.104-.896 2-2 2z"/></g></svg>