<svg id="Capa_1" fill="#0077b6" enable-background="new 0 0 512 512" height="512" viewBox="0 0 512 512" width="512" xmlns="http://www.w3.org/2000/svg"><g><path d="m256 110c24.853 0 45-20.147 45-45v-20c0-24.853-20.147-45-45-45-24.853 0-45 20.147-45 45v20c0 24.853 20.147 45 45 45z"/><path d="m91 170h80v55c0 8.284 6.716 15 15 15h140c8.284 0 15-6.716 15-15v-55h80c16.569 0 30-13.431 30-30 0-16.568-13.431-30-30-30h-105.041c-13.697 18.204-35.475 30-59.959 30s-46.262-11.796-59.959-30h-105.041c-16.569 0-30 13.431-30 30 0 16.569 13.431 30 30 30z"/><path d="m496.576 482h-45.576c0-24.853-20.147-45-45-45h-300c-24.853 0-45 20.147-45 45h-45.576c-8.077 0-15.027 6.207-15.407 14.275-.406 8.614 6.458 15.725 14.983 15.725h482c8.525 0 15.389-7.111 14.983-15.725-.38-8.068-7.33-14.275-15.407-14.275z"/><path d="m371.204 254.534-25.411 152.466h30.414l24.589-147.534c1.362-8.172-4.158-15.899-12.33-17.262-8.175-1.358-15.901 4.158-17.262 12.33z"/><path d="m123.534 242.204c-8.172 1.362-13.692 9.09-12.33 17.262l24.589 147.534h30.414l-25.411-152.466c-1.362-8.171-9.086-13.689-17.262-12.33z"/><path d="m181 317v40c0 8.284 6.716 15 15 15s15-6.716 15-15v-40c0-8.284-6.716-15-15-15s-15 6.716-15 15z"/><path d="m241 317v60c0 8.284 6.716 15 15 15s15-6.716 15-15v-60c0-8.284-6.716-15-15-15s-15 6.716-15 15z"/><path d="m301 317v40c0 8.284 6.716 15 15 15s15-6.716 15-15v-40c0-8.284-6.716-15-15-15s-15 6.716-15 15z"/></g></svg>