<svg id="Layer_1" height="512" viewBox="0 0 48 48" width="512" xmlns="http://www.w3.org/2000/svg" data-name="Layer 1"><path d="m47.8 23.478-3.878-4.235a.75.75 0 0 0 -.55-.243h-18.746l-.741-1.329a.752.752 0 0 0 -.655-.385h-3.27v-2.426a1.992 1.992 0 0 0 -1.99-1.989h-14.411a3.564 3.564 0 0 0 -3.559 3.56v15.138a3.564 3.564 0 0 0 3.559 3.56h14.411a1.992 1.992 0 0 0 1.99-1.989v-2.434h3.27a.749.749 0 0 0 .655-.385l.741-1.33h2.648a.747.747 0 0 0 .582-.277l1.228-1.514 1.5 1.562a.753.753 0 0 0 .54.229h1.4a.749.749 0 0 0 .548-.238l.287-.307.2.258a.753.753 0 0 0 .591.287h1.857a.743.743 0 0 0 .493-.185l.707-.618.447.535a.749.749 0 0 0 .575.268h1.991a.75.75 0 0 0 .669-.41l.3-.585h2.442a.751.751 0 0 0 .5-.192l3.622-3.262a.75.75 0 0 0 .051-1.064zm-29.34 9.662a.491.491 0 0 1 -.49.489h-14.411a2.062 2.062 0 0 1 -2.059-2.06v-15.138a2.062 2.062 0 0 1 2.059-2.06h14.411a.491.491 0 0 1 .49.489v2.889l-2.389 2.656h-2.291a2.282 2.282 0 1 0 0 1.5h2.626a.749.749 0 0 0 .557-.249l1.5-1.664v3.258h-2.683a.75.75 0 0 0 0 1.5h2.68v.969h-3.011l-1.313-1.366a.747.747 0 0 0 -.541-.231h-3.495a.75.75 0 0 0 0 1.5h3.173l1.313 1.366a.747.747 0 0 0 .541.231h3.33zm-6.043-11.985a.782.782 0 1 1 -.782-.782.783.783 0 0 1 .782.782zm30.923 5.345h-2.614a.749.749 0 0 0 -.669.41l-.3.585h-1.174l-.713-.852a.747.747 0 0 0 -1.068-.083l-1.072.935h-1.211l-.519-.664a.749.749 0 0 0 -.558-.286.7.7 0 0 0 -.581.237l-.662.709h-.754l-1.871-1.942a.707.707 0 0 0 -.574-.229.749.749 0 0 0 -.55.277l-1.536 1.894h-2.728a.753.753 0 0 0 -.656.385l-.74 1.33h-2.83v-10.42h2.83l.74 1.329a.751.751 0 0 0 .656.385h18.856l3.144 3.434z"/><path d="m5.087 19.917a2.049 2.049 0 0 0 -2.047 2.047v4.352a2.047 2.047 0 1 0 4.094 0v-4.352a2.049 2.049 0 0 0 -2.047-2.047zm.547 6.4a.547.547 0 1 1 -1.094 0v-4.353a.547.547 0 1 1 1.094 0z"/><path d="m21.893 23.25a.75.75 0 0 0 0 1.5h20.919a.75.75 0 0 0 0-1.5z"/><path d="m15.78 28.326a2.261 2.261 0 0 0 -1.174.335l-1.42-1.419a.755.755 0 0 0 -.53-.22h-2.556a.75.75 0 0 0 0 1.5h2.242l1.3 1.3a2.253 2.253 0 0 0 -.148.785 2.282 2.282 0 1 0 2.282-2.281zm0 3.063a.782.782 0 1 1 .782-.782.783.783 0 0 1 -.782.782z"/><path d="m9.98 18.307h4.247a.75.75 0 0 0 .53-.22l1.553-1.554a.75.75 0 1 0 -1.06-1.06l-1.334 1.334h-3.936a.75.75 0 0 0 0 1.5z"/></svg>