<svg id="Capa_1" enable-background="new 0 0 512 512" height="512" viewBox="0 0 512 512" width="512" xmlns="http://www.w3.org/2000/svg"><g><path d="m411 155c0-85.467-69.533-155-155-155s-155 69.533-155 155c0 80.407 61.545 146.702 140 154.272v102.728h-55c-8.284 0-15 6.716-15 15s6.716 15 15 15h55v55c0 8.284 6.716 15 15 15s15-6.716 15-15v-55h55c8.284 0 15-6.716 15-15s-6.716-15-15-15h-55v-102.728c78.455-7.57 140-73.865 140-154.272zm-280 0c0-68.925 56.075-125 125-125s125 56.075 125 125-56.075 125-125 125-125-56.075-125-125z" fill="#e789da"/><g><path d="m411 155c0-85.467-69.533-155-155-155v30c68.925 0 125 56.075 125 125s-56.075 125-125 125v232c8.284 0 15-6.716 15-15v-55h55c8.284 0 15-6.716 15-15s-6.716-15-15-15h-55v-102.728c78.455-7.57 140-73.865 140-154.272z" fill="#eb1d83"/></g></g></svg>