<svg id="Capa_1" fill="#FFF" enable-background="new 0 0 512 512" height="512" viewBox="0 0 512 512" width="512" xmlns="http://www.w3.org/2000/svg"><g><path d="m120 358.484v62.516h-45c-8.291 0-15 6.709-15 15s6.709 15 15 15h45v46c0 8.291 6.709 15 15 15s15-6.709 15-15v-46h45c8.291 0 15-6.709 15-15s-6.709-15-15-15h-45v-62.456c10.203-1.309 20.167-3.38 29.614-6.716-8.61-7.167-16.421-15.233-23.423-23.983-6.848 1.41-13.933 2.155-21.191 2.155-57.891 0-105-47.109-105-105s47.109-105 105-105c59.828 0 105 51.031 105 105 0 17.375-4.649 33.532-12.155 47.983 6.557 7.798 14.575 14.198 23.76 18.814 11.38-19.781 18.395-42.384 18.395-66.797 0-69.576-57.22-135-135-135-74.443 0-135 60.557-135 135 0 69.307 52.685 125.911 120 133.484z"/><path d="m497 0h-90c-8.291 0-15 6.709-15 15s6.709 15 15 15h53.789l-91.993 89.993c-23.097-18.476-51.983-29.993-83.796-29.993-15.712 0-30.577 3.215-44.614 8.172 8.61 7.167 16.421 15.233 23.423 23.983 6.848-1.41 13.933-2.155 21.191-2.155 57.891 0 105 47.109 105 105s-47.109 105-105 105c-59.423 0-105-50.471-105-105 0-17.375 4.649-33.532 12.155-47.983-6.557-7.798-14.575-14.198-23.76-18.814-11.38 19.781-18.395 42.384-18.395 66.797 0 70.254 58.757 135 135 135 74.443 0 135-60.557 135-135 0-31.813-11.517-60.699-29.993-83.796l91.993-89.993v53.789c0 8.291 6.709 15 15 15s15-6.709 15-15v-90c0-8.207-6.727-15-15-15z"/></g></svg>