<?xml version="1.0" encoding="iso-8859-1"?>
<!-- Generator: Adobe Illustrator 19.0.0, SVG Export Plug-In . SVG Version: 6.00 Build 0)  -->
<svg version="1.1" fill="white" id="Layer_1" xmlns="http://www.w3.org/2000/svg" xmlns:xlink="http://www.w3.org/1999/xlink" x="0px" y="0px"
	 viewBox="0 0 512.039 512.039" style="enable-background:new 0 0 512.039 512.039;" xml:space="preserve">
<g>
	<g>
		<path d="M446.782,138.092c-8.593-59.938-56.431-97.766-61.909-101.931c-34.355-32.145-74.189-16.87-93.227-2.483
			c-0.495-0.247-0.947-0.606-1.391-1.084c-4.497-4.821-5.163-17.852-4.77-23.415c0.324-4.693-3.209-8.781-7.902-9.114
			c-2.475-0.179-60.493-3.413-134.647,70.741l-9.515,9.506c-4.198,4.207-10.018,6.187-15.206,5.052
			c-1.664-0.35-2.534-0.802-2.586-0.606c-0.017-0.521,0.188-3.712,5.973-11.264c2.748-3.576,2.236-8.67-1.169-11.631
			c-3.388-2.953-8.508-2.748-11.674,0.452c-1.929,1.946-46.985,48.375-44.723,106.257c1.195,30.532,15.437,58.232,42.103,82.458
			l-0.068,23.04c0,58.283,5.726,117.649,47.249,157.082c6.69,6.349,13.892,12.023,21.248,17.348v55.006
			c0,4.719,3.823,8.533,8.533,8.533s8.533-3.814,8.533-8.533v-43.213c0.239,0.162,0.486,0.324,0.725,0.478
			c0.631,0.435,1.28,0.87,1.911,1.297l8.201,5.504c3.234,2.193,6.391,4.523,9.532,6.852c13.662,10.104,27.793,20.548,47.667,20.548
			c19.866,0,33.997-10.445,47.659-20.54c3.149-2.338,6.306-4.668,9.54-6.861l8.183-5.495c0.29-0.196,0.589-0.401,0.879-0.597
			c0.742-0.486,1.493-0.99,2.236-1.493v43.52c0,4.719,3.823,8.533,8.533,8.533c4.71,0,8.533-3.814,8.533-8.533v-55.33
			c7.194-5.239,14.234-10.812,20.787-17.024c41.728-39.62,47.479-99.371,47.479-158.046v-22.912
			C440.885,213.236,452.158,175.536,446.782,138.092z M396.435,247.506v25.6c0,54.869-5.111,110.481-42.163,145.656
			c-7.612,7.219-16.188,13.636-24.951,19.746c-4.531,3.166-9.105,6.263-13.696,9.336l-8.328,5.598
			c-3.43,2.321-6.776,4.796-10.112,7.262c-11.972,8.849-23.27,17.203-37.513,17.203c-12.467,0-22.682-6.4-33.05-13.926
			c-1.485-1.075-2.97-2.167-4.463-3.277c-3.337-2.466-6.69-4.941-10.112-7.262l-8.073-5.427c-4.71-3.149-9.412-6.332-14.063-9.574
			c-8.721-6.084-17.271-12.484-24.841-19.678c-38.69-36.719-41.933-93.935-41.933-144.666l0.23-77.79
			c0-5.769,1.126-11.358,3.354-16.614c0.862-2.057,1.971-3.951,3.174-5.751c0.358-0.538,0.759-1.024,1.143-1.536
			c0.947-1.246,1.98-2.432,3.081-3.541c0.461-0.469,0.913-0.939,1.408-1.374c1.425-1.28,2.944-2.466,4.565-3.507
			c0.179-0.119,0.341-0.256,0.521-0.375c1.801-1.118,3.729-2.039,5.717-2.85c0.614-0.247,1.254-0.444,1.894-0.666
			c1.459-0.512,2.961-0.939,4.497-1.289c0.708-0.145,1.408-0.316,2.116-0.427c1.835-0.299,3.703-0.486,5.589-0.555
			c0.375-0.008,0.742-0.068,1.118-0.068c1.493-0.009,3.012,0.213,4.531,0.367c1.007,0.102,1.997,0.085,3.012,0.265
			c2.526,0.427,5.052,1.092,7.56,1.997c13.013,4.71,38.025,10.325,83.251,10.325s70.238-5.615,83.251-10.325
			c17.451-6.306,36.062-0.888,45.833,12.279c0.179,0.247,0.41,0.427,0.58,0.674c1.374,1.954,2.56,4.07,3.516,6.349
			c2.227,5.265,3.354,10.854,3.354,16.623V247.506z"/>
	</g>
</g>
<g>
</g>
<g>
</g>
<g>
</g>
<g>
</g>
<g>
</g>
<g>
</g>
<g>
</g>
<g>
</g>
<g>
</g>
<g>
</g>
<g>
</g>
<g>
</g>
<g>
</g>
<g>
</g>
<g>
</g>
</svg>
