<?xml version="1.0" encoding="iso-8859-1"?>
<!-- Generator: Adobe Illustrator 18.0.0, SVG Export Plug-In . SVG Version: 6.00 Build 0)  -->
<!DOCTYPE svg PUBLIC "-//W3C//DTD SVG 1.1//EN" "http://www.w3.org/Graphics/SVG/1.1/DTD/svg11.dtd">
<svg version="1.1" id="Capa_1" fill="white" xmlns="http://www.w3.org/2000/svg" xmlns:xlink="http://www.w3.org/1999/xlink" x="0px" y="0px"
	 viewBox="0 0 296 296" style="enable-background:new 0 0 296 296;" xml:space="preserve">
<g>
	<path d="M259.819,145.091c0.013,0.697,0.025,1.393,0.025,2.092v28.409c0,6.348-3.996,12.009-9.978,14.134
		c-19.321,6.866-52.678,15.05-101.867,15.05c-49.191,0-82.547-8.184-101.867-15.05c-5.981-2.126-9.977-7.786-9.977-14.134v-28.409
		c0-0.699,0.013-1.395,0.025-2.092C13.642,155.753,0,169.671,0,184.894c0,33.56,66.263,60.768,148,60.768
		c81.736,0,148-27.208,148-60.768C296,169.671,282.357,155.753,259.819,145.091z"/>
	<path d="M51.155,147.182v28.409c22.329,7.935,54.882,14.184,96.844,14.184c41.961,0,74.514-6.249,96.844-14.184v-28.409
		c0-53.488-43.357-96.845-96.844-96.845C94.511,50.338,51.155,93.695,51.155,147.182z"/>
</g>
<g>
</g>
<g>
</g>
<g>
</g>
<g>
</g>
<g>
</g>
<g>
</g>
<g>
</g>
<g>
</g>
<g>
</g>
<g>
</g>
<g>
</g>
<g>
</g>
<g>
</g>
<g>
</g>
<g>
</g>
</svg>
