<svg height="512" viewBox="0 0 152 152" width="512" xmlns="http://www.w3.org/2000/svg" xmlns:xlink="http://www.w3.org/1999/xlink"><linearGradient id="linear-gradient" gradientUnits="userSpaceOnUse" x1="61.06" x2="148.88" y1="60.28" y2="148.09"><stop offset="0" stop-color="#186eb3"/><stop offset="1" stop-color="#186eb3" stop-opacity="0"/></linearGradient><g id="Layer_2" data-name="Layer 2"><g id="Color"><g id="_03.C" data-name="03.C"><rect id="Background" fill="#2196f3" height="152" rx="12" width="152"/><path id="Shadow" d="m152 96.58v43.42a12 12 0 0 1 -12 12h-41.85l-43.39-43.4q8.35 7.4 21.56 7.4a38.3 38.3 0 0 0 16.54-3.42 26.43 26.43 0 0 0 11.25-9.65 28.42 28.42 0 0 0 4.38-14.34h-18.65q-.21 6.61-3.63 9.67t-9.89 3q-7.63 0-10.77-5.34t-3.12-17.8v-5.5q.15-11.49 3.42-16.73t10.26-5.19q6.89 0 10.26 3.1c2.24 2.06 3.44 5.47 3.63 10.2h18.7q-1-10.84-7-17.81z" fill="url(#linear-gradient)"/><path id="Icon" d="m108.49 88.59a28.42 28.42 0 0 1 -4.38 14.34 26.43 26.43 0 0 1 -11.25 9.65 38.3 38.3 0 0 1 -16.54 3.42q-15.32 0-24.15-10t-8.82-28.21v-3.85a47.17 47.17 0 0 1 4-20 30.06 30.06 0 0 1 11.44-13.26 32 32 0 0 1 17.32-4.68q14.16 0 22.76 7.45t9.78 20.55h-18.65c-.14-4.73-1.34-8.14-3.58-10.2s-5.67-3.1-10.26-3.1-8.16 1.74-10.31 5.23-3.32 9.07-3.42 16.73v5.5q0 12.47 3.12 17.8t10.77 5.34q6.47 0 9.89-3t3.63-9.67z" fill="#fff"/></g></g></g></svg>