<svg height="512" viewBox="0 0 152 152" width="512" xmlns="http://www.w3.org/2000/svg" xmlns:xlink="http://www.w3.org/1999/xlink"><linearGradient id="linear-gradient" gradientUnits="userSpaceOnUse" x1="54.74" x2="86.75" y1="60.01" y2="92.03"><stop offset="0" stop-color="#186eb3"/><stop offset="1" stop-color="#186eb3" stop-opacity="0"/></linearGradient><linearGradient id="linear-gradient-2" x1="67.32" x2="143.2" xlink:href="#linear-gradient" y1="77.9" y2="153.77"/><g id="Layer_2" data-name="Layer 2"><g id="Color"><g id="_04.D" data-name="04.D"><rect id="Background" fill="#2196f3" height="152" rx="12" width="152"/><g id="Shadow"><path d="m70.56 101.16h-6.7v-50.27h6.48q8.52 0 13 5.88t4.45 17.47v3.46q0 11.65-4.45 17.56t-12.78 5.9z" fill="url(#linear-gradient)"/><path d="m152 101.72v38.28a12 12 0 0 1 -12 12h-59.43l-36-36h26.32a37.09 37.09 0 0 0 18.82-5 34 34 0 0 0 13.08-13.6 41.25 41.25 0 0 0 4.64-19.7v-3.7a41 41 0 0 0 -4.81-19.64 34.84 34.84 0 0 0 -4.87-6.91z" fill="url(#linear-gradient-2)"/></g><path id="Icon" d="m44.57 116v-80h25.77a37.87 37.87 0 0 1 19.07 4.81 33.78 33.78 0 0 1 13.21 13.57 41 41 0 0 1 4.81 19.62v3.7a41.25 41.25 0 0 1 -4.64 19.7 34 34 0 0 1 -13.08 13.6 37.09 37.09 0 0 1 -18.82 5zm19.29-65.11v50.27h6.7q8.3 0 12.75-5.9t4.45-17.56v-3.46q0-11.59-4.45-17.47t-13-5.88z" fill="#fff"/></g></g></g></svg>