<svg height="512" viewBox="0 0 152 152" width="512" xmlns="http://www.w3.org/2000/svg" xmlns:xlink="http://www.w3.org/1999/xlink"><linearGradient id="linear-gradient" gradientUnits="userSpaceOnUse" x1="63.84" x2="81.49" y1="51.3" y2="68.94"><stop offset="0" stop-color="#186eb3"/><stop offset="1" stop-color="#186eb3" stop-opacity="0"/></linearGradient><linearGradient id="linear-gradient-2" x1="64.11" x2="82.85" xlink:href="#linear-gradient" y1="82.18" y2="100.91"/><linearGradient id="linear-gradient-3" x1="68.73" x2="144.74" xlink:href="#linear-gradient" y1="76.23" y2="152.24"/><g id="Layer_2" data-name="Layer 2"><g id="Color"><g id="_02.B" data-name="02.B"><rect id="Background" fill="#2196f3" height="152" rx="12" width="152"/><g id="Shadow"><path d="m74.35 69.35h-10v-18.51h9.45q6.48 0 9.39 2.23t2.91 7.3c0 2.94-.89 5.16-2.69 6.67s-4.85 2.28-9.06 2.31z" fill="url(#linear-gradient)"/><path d="m76.93 101.16h-12.63v-19.16h13.51q9.94.06 10 10.05a8.37 8.37 0 0 1 -2.81 6.72c-1.91 1.6-4.59 2.39-8.07 2.39z" fill="url(#linear-gradient-2)"/><path d="m152 96v44a12 12 0 0 1 -12 12h-59l-36-36h32.48q14.63-.1 22.06-6t7.46-17.68a17.92 17.92 0 0 0 -3.35-11 16.85 16.85 0 0 0 -9.65-6.14 16.73 16.73 0 0 0 8.41-6.49 19.06 19.06 0 0 0 2.86-10.6q0-8.33-4.82-13.6z" fill="url(#linear-gradient-3)"/></g><path id="Icon" d="m45 116v-80h28.75q15.44 0 23.49 5.66t8.05 16.43a19.06 19.06 0 0 1 -2.86 10.6 16.73 16.73 0 0 1 -8.43 6.49 16.85 16.85 0 0 1 9.62 6.15 17.92 17.92 0 0 1 3.35 11q0 11.76-7.45 17.66t-22.06 6zm19.3-46.65h10c4.21 0 7.22-.81 9-2.31s2.69-3.73 2.69-6.67q0-5.07-2.91-7.3t-9.39-2.23h-9.39zm0 12.65v19.17h12.63c3.48 0 6.16-.79 8-2.39a8.37 8.37 0 0 0 2.83-6.78q0-10-10-10.05z" fill="#fff"/></g></g></g></svg>