<?xml version="1.0" encoding="iso-8859-1"?>
<!-- Generator: Adobe Illustrator 19.0.0, SVG Export Plug-In . SVG Version: 6.00 Build 0)  -->
<svg version="1.1" id="Capa_1" xmlns="http://www.w3.org/2000/svg" xmlns:xlink="http://www.w3.org/1999/xlink" x="0px" y="0px"
	 viewBox="0 0 477.867 477.867" fill="#fff" style="enable-background:new 0 0 477.867 477.867;" xml:space="preserve">
<g>
	<g>
		<path d="M238.933,0C106.974,0,0,106.974,0,238.933s106.974,238.933,238.933,238.933s238.933-106.974,238.933-238.933
			C477.726,107.033,370.834,0.141,238.933,0z M238.933,443.733c-113.108,0-204.8-91.692-204.8-204.8s91.692-204.8,204.8-204.8
			s204.8,91.692,204.8,204.8C443.611,351.991,351.991,443.611,238.933,443.733z"/>
	</g>
</g>
<g>
	<g>
		<path d="M339.557,231.32c-1.654-3.318-4.343-6.008-7.662-7.662l-136.533-68.267c-8.432-4.213-18.682-0.794-22.896,7.638
			c-1.185,2.371-1.801,4.986-1.8,7.637V307.2c-0.004,9.426,7.633,17.07,17.059,17.075c2.651,0.001,5.266-0.615,7.637-1.8
			l136.533-68.267C340.331,250.004,343.762,239.756,339.557,231.32z M204.8,279.586v-81.306l81.306,40.653L204.8,279.586z"/>
	</g>
</g>
<g>
</g>
<g>
</g>
<g>
</g>
<g>
</g>
<g>
</g>
<g>
</g>
<g>
</g>
<g>
</g>
<g>
</g>
<g>
</g>
<g>
</g>
<g>
</g>
<g>
</g>
<g>
</g>
<g>
</g>
</svg>
