<?xml version="1.0" encoding="iso-8859-1"?>
<!-- Generator: Adobe Illustrator 19.0.0, SVG Export Plug-In . SVG Version: 6.00 Build 0)  -->
<svg version="1.1" fill="white" id="Layer_1" xmlns="http://www.w3.org/2000/svg" xmlns:xlink="http://www.w3.org/1999/xlink" x="0px" y="0px"
	 viewBox="0 0 512 512" style="enable-background:new 0 0 512 512;" xml:space="preserve">
<g>
	<g>
		<g>
			<path d="M219.949,58.351C213.395,23.45,186.583,0,153.244,0S93.092,23.45,86.539,58.351
				c-6.255,33.289-17.681,274.645-18.244,299.861c-0.708,32.358,5.504,65.451,17.502,93.184
				c17.067,39.415,40.354,60.373,67.524,60.604c27.025-0.23,50.321-21.197,67.371-60.604c12.442-28.749,18.91-61.841,18.219-93.184
				C238.364,333.688,226.374,92.535,219.949,58.351z M110.594,204.262c0.7-11.059,1.169-22.118,1.621-33.169
				c0.563-13.346,1.143-27.153,2.142-40.781c1.263-17.126,2.577-34.236,3.959-51.354c0.99-12.254,3.627-44.826,34.927-44.826
				c31.309,0,33.937,32.572,34.935,44.834c1.382,17.109,2.688,34.219,3.951,51.345c1.007,13.662,1.587,27.486,2.15,40.866
				c0.452,11.025,0.913,22.05,1.613,33.084c0.154,2.355-0.683,4.668-2.295,6.383c-1.613,1.715-3.866,2.688-6.221,2.688H119.11
				c-2.355,0-4.608-0.973-6.229-2.688C111.277,208.93,110.441,206.618,110.594,204.262z M199.076,323.661
				c-15.198,6.084-30.515,9.114-45.833,9.114c-15.309,0-30.626-3.029-45.833-9.114c-4.378-1.749-6.511-6.716-4.762-11.093
				c1.749-4.386,6.716-6.511,11.093-4.753c26.59,10.633,52.429,10.633,79.002,0c4.343-1.758,9.344,0.375,11.093,4.753
				C205.587,316.945,203.454,321.911,199.076,323.661z M199.076,289.527c-15.198,6.084-30.515,9.114-45.833,9.114
				c-15.309,0-30.626-3.029-45.833-9.114c-4.378-1.749-6.511-6.716-4.762-11.093c1.749-4.386,6.716-6.511,11.093-4.753
				c26.59,10.641,52.429,10.624,79.002,0c4.343-1.758,9.344,0.367,11.093,4.753C205.587,282.812,203.454,287.778,199.076,289.527z"
				/>
			<path d="M177.218,171.886c-0.546-13.235-1.126-26.923-2.108-40.329c-1.263-17.075-2.568-34.15-3.951-51.217
				c-1.954-24.26-8.311-29.141-17.92-29.141s-15.949,4.881-17.903,29.133c-1.382,17.075-2.705,34.15-3.959,51.226
				c-0.981,13.372-1.553,27.034-2.108,40.243c-0.341,8.158-0.683,16.307-1.118,24.465h50.185
				C177.901,188.142,177.56,180.01,177.218,171.886z"/>
			<path d="M382.018,171.886c-0.546-13.235-1.126-26.923-2.108-40.329c-1.263-17.075-2.569-34.15-3.951-51.217
				c-1.954-24.26-8.312-29.141-17.92-29.141s-15.949,4.881-17.903,29.133c-1.382,17.075-2.705,34.15-3.959,51.226
				c-0.981,13.372-1.553,27.034-2.108,40.243c-0.341,8.158-0.683,16.307-1.118,24.465h50.185
				C382.701,188.142,382.359,180.01,382.018,171.886z"/>
			<path d="M443.71,358.212c-0.546-24.525-12.535-265.677-18.961-299.861C418.195,23.45,391.384,0,358.044,0
				c-33.34,0-60.151,23.45-66.705,58.351c-6.281,33.425-17.741,274.679-18.295,299.861c-0.717,32.265,5.513,65.357,17.553,93.184
				c17.067,39.415,40.354,60.373,67.524,60.604c27.025-0.23,50.321-21.197,67.371-60.604
				C437.933,422.648,444.401,389.555,443.71,358.212z M315.394,204.262c0.7-11.059,1.169-22.118,1.621-33.169
				c0.563-13.346,1.143-27.153,2.142-40.781c1.263-17.126,2.577-34.236,3.959-51.354c0.99-12.254,3.627-44.826,34.927-44.826
				c31.309,0,33.937,32.572,34.935,44.834c1.382,17.109,2.688,34.219,3.951,51.345c1.007,13.662,1.587,27.486,2.15,40.866
				c0.452,11.025,0.913,22.05,1.613,33.084c0.154,2.355-0.683,4.668-2.295,6.383c-1.613,1.715-3.866,2.688-6.221,2.688H323.91
				c-2.355,0-4.608-0.973-6.229-2.688C316.077,208.93,315.241,206.618,315.394,204.262z M403.876,323.661
				c-15.198,6.084-30.515,9.114-45.833,9.114c-15.309,0-30.626-3.029-45.833-9.114c-4.378-1.749-6.511-6.716-4.762-11.093
				c1.749-4.386,6.716-6.511,11.093-4.753c26.59,10.633,52.429,10.633,79.002,0c4.326-1.758,9.344,0.375,11.093,4.753
				C410.387,316.945,408.254,321.911,403.876,323.661z M403.876,289.527c-15.198,6.084-30.515,9.114-45.833,9.114
				c-15.309,0-30.626-3.029-45.833-9.114c-4.378-1.749-6.511-6.716-4.762-11.093c1.749-4.386,6.716-6.511,11.093-4.753
				c26.59,10.641,52.429,10.624,79.002,0c4.326-1.758,9.344,0.367,11.093,4.753C410.387,282.812,408.254,287.778,403.876,289.527z"
				/>
		</g>
	</g>
</g>
<g>
</g>
<g>
</g>
<g>
</g>
<g>
</g>
<g>
</g>
<g>
</g>
<g>
</g>
<g>
</g>
<g>
</g>
<g>
</g>
<g>
</g>
<g>
</g>
<g>
</g>
<g>
</g>
<g>
</g>
</svg>
