<?xml version="1.0" encoding="iso-8859-1"?>
<!-- Generator: Adobe Illustrator 18.0.0, SVG Export Plug-In . SVG Version: 6.00 Build 0)  -->
<!DOCTYPE svg PUBLIC "-//W3C//DTD SVG 1.1//EN" "http://www.w3.org/Graphics/SVG/1.1/DTD/svg11.dtd">
<svg version="1.1" id="Capa_1" fill="white" xmlns="http://www.w3.org/2000/svg" xmlns:xlink="http://www.w3.org/1999/xlink" x="0px" y="0px"
	 viewBox="0 0 290.094 290.094" style="enable-background:new 0 0 290.094 290.094;" xml:space="preserve">
<path d="M287.804,168.505L216.34,69.131c-4.957-6.893-12.929-10.98-21.42-10.98h-12.891V41.597c0-6.721-5.449-12.17-12.17-12.17
	h-18.192v80.346c0,4.142-3.357,7.5-7.5,7.5c-4.143,0-7.5-3.358-7.5-7.5V29.427h-18.191c-6.721,0-12.17,5.449-12.17,12.17v16.554
	h-11.13c-8.491,0-16.463,4.086-21.42,10.98L2.29,168.505c-3.708,5.157-2.827,12.298,2.023,16.399l13.14,11.109
	c4.83,4.083,11.982,3.787,16.458-0.683l38.508-38.458l-5.373,57.454c-0.319,3.41,0.814,6.796,3.12,9.328
	c2.271,2.494,5.475,3.924,8.843,3.967v20.876c0,6.721,5.449,12.17,12.17,12.17h107.735c6.721,0,12.17-5.449,12.17-12.17v-20.876
	c3.368-0.043,6.572-1.473,8.844-3.967c2.306-2.532,3.439-5.918,3.12-9.328l-5.373-57.454l38.508,38.458
	c4.475,4.469,11.628,4.766,16.458,0.683l13.14-11.109C290.632,180.803,291.513,173.661,287.804,168.505z"/>
<g>
</g>
<g>
</g>
<g>
</g>
<g>
</g>
<g>
</g>
<g>
</g>
<g>
</g>
<g>
</g>
<g>
</g>
<g>
</g>
<g>
</g>
<g>
</g>
<g>
</g>
<g>
</g>
<g>
</g>
</svg>
