<?xml version="1.0" encoding="iso-8859-1"?>
<!-- Generator: Adobe Illustrator 18.0.0, SVG Export Plug-In . SVG Version: 6.00 Build 0)  -->
<!DOCTYPE svg PUBLIC "-//W3C//DTD SVG 1.1//EN" "http://www.w3.org/Graphics/SVG/1.1/DTD/svg11.dtd">
<svg version="1.1" id="Capa_1" fill="white" xmlns="http://www.w3.org/2000/svg" xmlns:xlink="http://www.w3.org/1999/xlink" x="0px" y="0px"
	 viewBox="0 0 296.468 296.468" style="enable-background:new 0 0 296.468 296.468;" xml:space="preserve">
<g>
	<path d="M92.181,49.208c0.576,4.533,4.432,7.93,9.002,7.93h41.718c4.57,0,8.426-3.398,9.002-7.931l4.95-38.991
		c0.328-2.585-0.471-5.186-2.193-7.141C152.937,1.12,150.457,0,147.852,0H96.23c-2.606,0-5.086,1.12-6.808,3.075
		c-1.723,1.955-2.521,4.557-2.193,7.142L92.181,49.208z"/>
	<path d="M215.921,215.03l-7.3-34.992c-1.324-6.347-3.958-12.347-7.732-17.619l-31.428-43.886l6.178,86.399l30.232,17.384
		c2.323,1.336,5.214,1.183,7.384-0.39C215.425,220.354,216.469,217.654,215.921,215.03z"/>
	<path d="M152.32,89.132c-0.339-4.748-4.29-8.427-9.051-8.427h-42.454c-4.76,0-8.711,3.679-9.051,8.427L80.559,245.847
		c-0.863,7.741,1.897,15.444,7.478,20.878l28.07,27.327c1.653,1.61,3.795,2.415,5.938,2.415c2.142,0,4.285-0.805,5.937-2.415
		l28.066-27.327c5.581-5.435,8.342-13.138,7.479-20.878L152.32,89.132z"/>
</g>
<g>
</g>
<g>
</g>
<g>
</g>
<g>
</g>
<g>
</g>
<g>
</g>
<g>
</g>
<g>
</g>
<g>
</g>
<g>
</g>
<g>
</g>
<g>
</g>
<g>
</g>
<g>
</g>
<g>
</g>
</svg>
