<?xml version="1.0" encoding="iso-8859-1"?>
<!-- Generator: Adobe Illustrator 18.0.0, SVG Export Plug-In . SVG Version: 6.00 Build 0)  -->
<!DOCTYPE svg PUBLIC "-//W3C//DTD SVG 1.1//EN" "http://www.w3.org/Graphics/SVG/1.1/DTD/svg11.dtd">
<svg version="1.1" id="Capa_1" fill="white" xmlns="http://www.w3.org/2000/svg" xmlns:xlink="http://www.w3.org/1999/xlink" x="0px" y="0px"
	 viewBox="0 0 297.877 297.877" style="enable-background:new 0 0 297.877 297.877;" xml:space="preserve">
<g>
	<path d="M218.188,52.617l0.043-5.373c0.04-5.03-0.168-10.053-0.604-15.055h-17.885C202.195,41.62,209.163,49.246,218.188,52.617z"
		/>
	<path d="M215.587,17.19c-0.487-2.638-1.025-5.267-1.646-7.88l-0.869-3.66C212.285,2.338,209.327,0,205.923,0H91.956
		c-3.404,0-6.362,2.338-7.148,5.649l-0.87,3.664c-0.621,2.612-1.159,5.24-1.646,7.877H215.587z"/>
	<path d="M184.425,32.19H156.44v27.083c0,4.143-3.357,7.5-7.5,7.5c-4.143,0-7.5-3.357-7.5-7.5V32.19h-28.005
		c-2.993,17.678-16.371,31.862-33.623,36.039l1.758,222.359c0.032,4.035,3.312,7.289,7.347,7.289h39.125
		c3.895,0,7.114-3.04,7.335-6.929l11.631-203.843c0.058-1.019,0.901-1.815,1.921-1.815c1.02,0,1.863,0.796,1.921,1.815
		l11.631,203.843c0.222,3.889,3.44,6.929,7.336,6.929h39.124c4.035,0,7.315-3.254,7.347-7.289l1.775-222.356
		C200.804,64.06,187.419,49.874,184.425,32.19z"/>
	<path d="M98.118,32.19H80.251c-0.437,5.001-0.645,10.023-0.605,15.051l0.043,5.369C88.706,49.236,95.666,41.614,98.118,32.19z"/>
</g>
<g>
</g>
<g>
</g>
<g>
</g>
<g>
</g>
<g>
</g>
<g>
</g>
<g>
</g>
<g>
</g>
<g>
</g>
<g>
</g>
<g>
</g>
<g>
</g>
<g>
</g>
<g>
</g>
<g>
</g>
</svg>
