<?xml version="1.0" encoding="iso-8859-1"?>
<!-- Generator: Adobe Illustrator 19.0.0, SVG Export Plug-In . SVG Version: 6.00 Build 0)  -->
<svg version="1.1" id="Capa_1" fill="#FFF" xmlns="http://www.w3.org/2000/svg" xmlns:xlink="http://www.w3.org/1999/xlink" x="0px" y="0px"
	 viewBox="0 0 512 512" style="enable-background:new 0 0 512 512;" xml:space="preserve">
<g>
	<g>
		<g>
			<path d="M366.481,176.051L351.07,98.995c-1.619-7.954-8.617-13.667-16.734-13.662h-3.072l-7.168-35.84l-7.159-35.84
				C315.314,5.703,308.317-0.006,300.203,0h-88.405c-8.133,0-15.136,5.739-16.734,13.713l-7.159,35.78l-7.168,35.84h-3.072
				c-8.133,0-15.136,5.739-16.734,13.713l-15.411,77.065c-34.736,47.596-34.736,112.182,0,159.778l15.411,77.056
				c1.595,7.978,8.598,13.721,16.734,13.722h3.072l7.168,35.84l7.159,35.84c1.623,7.951,8.619,13.659,16.734,13.653h88.405
				c8.133,0,15.136-5.739,16.734-13.713l7.159-35.84l7.168-35.84h3.072c8.133,0,15.136-5.739,16.734-13.713l15.411-77.065
				C401.217,288.234,401.217,223.647,366.481,176.051z M203.264,59.733H256c4.713,0,8.533-3.82,8.533-8.533s-3.82-8.533-8.533-8.533
				h-49.323l5.12-25.6h88.405l5.12,25.6h-15.189c-4.713,0-8.533,3.82-8.533,8.533s3.821,8.533,8.533,8.533h18.603l5.12,25.6H198.144
				L203.264,59.733z M177.664,102.4h156.672l9.924,49.613c-50.839-43.396-125.682-43.396-176.521,0L177.664,102.4z M308.736,452.267
				H256c-4.713,0-8.533,3.821-8.533,8.533s3.82,8.533,8.533,8.533h49.323l-5.12,25.6h-88.405l-5.12-25.6h15.189
				c4.713,0,8.533-3.82,8.533-8.533s-3.821-8.533-8.533-8.533h-18.603l-5.12-25.6h115.712L308.736,452.267z M334.336,409.6H177.664
				l-9.924-49.613c50.839,43.396,125.682,43.396,176.521,0L334.336,409.6z M256,375.467c-65.98,0-119.467-53.487-119.467-119.467
				S190.02,136.533,256,136.533S375.467,190.02,375.467,256C375.396,321.95,321.95,375.396,256,375.467z"/>
			<path d="M267.034,232.9l-11.836,11.836l-28.211-21.163c-2.439-1.829-5.669-2.218-8.472-1.021s-4.755,3.8-5.12,6.827
				c-0.365,3.027,0.913,6.018,3.352,7.847l34.133,25.6c3.397,2.547,8.151,2.209,11.153-0.794l17.067-17.067
				c3.234-3.348,3.188-8.671-0.104-11.962C275.704,229.713,270.382,229.666,267.034,232.9z"/>
			<path d="M256,187.733c4.713,0,8.533-3.82,8.533-8.533v-17.067c0-4.713-3.82-8.533-8.533-8.533c-4.713,0-8.533,3.82-8.533,8.533
				V179.2C247.467,183.913,251.287,187.733,256,187.733z"/>
			<path d="M210.21,193.758c1.513,2.662,4.337,4.309,7.399,4.316c3.062,0.007,5.893-1.628,7.418-4.283
				c1.525-2.655,1.511-5.924-0.038-8.566l-8.533-14.78c-1.513-2.662-4.337-4.309-7.399-4.316c-3.062-0.007-5.893,1.628-7.418,4.283
				c-1.525,2.655-1.511,5.924,0.038,8.566L210.21,193.758z"/>
			<path d="M193.758,210.21l-14.78-8.533c-2.642-1.549-5.911-1.563-8.566-0.038c-2.655,1.525-4.29,4.356-4.283,7.418
				c0.007,3.062,1.654,5.886,4.316,7.399l14.78,8.533c2.642,1.549,5.911,1.563,8.566,0.038c2.655-1.525,4.29-4.356,4.283-7.418
				C198.067,214.547,196.42,211.724,193.758,210.21z"/>
			<path d="M187.733,256c0-4.713-3.82-8.533-8.533-8.533h-17.067c-4.713,0-8.533,3.82-8.533,8.533s3.82,8.533,8.533,8.533H179.2
				C183.913,264.533,187.733,260.713,187.733,256z"/>
			<path d="M193.79,286.972c-2.655-1.525-5.924-1.511-8.566,0.038l-14.78,8.533c-2.662,1.514-4.309,4.337-4.316,7.399
				c-0.007,3.062,1.628,5.893,4.283,7.418c2.655,1.525,5.924,1.511,8.566-0.038l14.78-8.533c2.662-1.514,4.309-4.337,4.316-7.399
				C198.08,291.328,196.446,288.497,193.79,286.972z"/>
			<path d="M221.867,315.119c-4.081-2.356-9.3-0.958-11.656,3.123l-8.533,14.78c-1.549,2.642-1.563,5.911-0.038,8.566
				c1.525,2.655,4.356,4.29,7.418,4.283c3.062-0.007,5.886-1.654,7.399-4.316l8.533-14.78
				C227.346,322.694,225.948,317.475,221.867,315.119z"/>
			<path d="M256,324.267c-4.713,0-8.533,3.821-8.533,8.533v17.067c0,4.713,3.82,8.533,8.533,8.533c4.713,0,8.533-3.82,8.533-8.533
				V332.8C264.533,328.087,260.713,324.267,256,324.267z"/>
			<path d="M301.79,318.242c-1.513-2.662-4.337-4.309-7.399-4.316c-3.062-0.007-5.893,1.628-7.418,4.283
				c-1.525,2.655-1.511,5.924,0.038,8.566l8.533,14.78c1.513,2.662,4.337,4.309,7.399,4.316c3.062,0.007,5.893-1.628,7.418-4.283
				c1.525-2.655,1.511-5.924-0.038-8.566L301.79,318.242z"/>
			<path d="M341.555,295.543l-14.78-8.533c-4.078-2.318-9.262-0.911-11.608,3.151c-2.345,4.062-0.972,9.256,3.074,11.628
				l14.78,8.533c2.642,1.549,5.911,1.563,8.566,0.038c2.655-1.525,4.29-4.356,4.283-7.418
				C345.864,299.881,344.217,297.057,341.555,295.543z"/>
			<path d="M349.867,247.467H332.8c-4.713,0-8.533,3.82-8.533,8.533s3.82,8.533,8.533,8.533h17.067c4.713,0,8.533-3.82,8.533-8.533
				S354.579,247.467,349.867,247.467z"/>
			<path d="M318.21,225.028c2.655,1.525,5.924,1.511,8.566-0.038l14.78-8.533c2.662-1.513,4.309-4.337,4.316-7.399
				c0.007-3.062-1.628-5.893-4.283-7.418c-2.655-1.525-5.924-1.511-8.566,0.038l-14.78,8.533c-2.662,1.513-4.309,4.337-4.316,7.399
				C313.92,220.672,315.554,223.503,318.21,225.028z"/>
			<path d="M294.39,198.074c3.062-0.007,5.886-1.654,7.399-4.316l8.533-14.78c1.134-1.961,1.442-4.292,0.857-6.48
				c-0.586-2.188-2.018-4.053-3.98-5.185c-1.961-1.131-4.291-1.436-6.477-0.849c-2.186,0.587-4.049,2.019-5.18,3.981l-8.533,14.78
				c-1.549,2.642-1.563,5.911-0.038,8.566C288.497,196.446,291.328,198.08,294.39,198.074z"/>
		</g>
	</g>
</g>
<g>
</g>
<g>
</g>
<g>
</g>
<g>
</g>
<g>
</g>
<g>
</g>
<g>
</g>
<g>
</g>
<g>
</g>
<g>
</g>
<g>
</g>
<g>
</g>
<g>
</g>
<g>
</g>
<g>
</g>
</svg>
