<svg id="Capa_1" enable-background="new 0 0 512 512" height="512" viewBox="0 0 512 512" width="512" xmlns="http://www.w3.org/2000/svg"><g><g><path d="m406.578 117.283v-107.283c0-5.523-4.478-10-10-10h-58.466c-5.522 0-10 4.477-10 10v38.982c-7.031-2.514-14.297-4.491-21.752-5.911-3.808-24.368-24.941-43.071-50.36-43.071s-46.553 18.703-50.36 43.07c-7.455 1.42-14.721 3.397-21.752 5.911v-38.981c0-5.523-4.477-10-10-10h-58.466c-5.522 0-10 4.477-10 10v107.283c-13.088 24.244-20.077 52.414-20.077 82.094v278.865c0 18.614 15.145 33.758 33.76 33.758h273.791c18.615 0 33.76-15.144 33.76-33.758v-278.866c-.001-29.68-6.99-57.85-20.078-82.093zm-58.466-97.283h38.466v68.598c-.383-.432-.768-.862-1.155-1.289-10.883-11.995-23.466-21.852-37.311-29.383zm-92.112 0c13.432 0 24.894 8.594 29.176 20.572-2.489-.119-4.992-.179-7.51-.179h-43.332c-2.517 0-5.021.06-7.51.179 4.282-11.978 15.744-20.572 29.176-20.572zm-130.578 0h38.466v37.927c-13.844 7.531-26.428 17.388-37.311 29.383-.388.427-.773.857-1.155 1.289zm267.474 472h-273.792c-7.587 0-13.76-6.172-13.76-13.758v-23.061h105.449c5.523 0 10-4.477 10-10s-4.477-10-10-10h-105.448v-193.964c0-79.234 55.453-138.984 128.989-138.984h43.332c73.536 0 128.989 59.75 128.989 138.984v193.963h-105.449c-5.522 0-10 4.477-10 10s4.478 10 10 10h105.449v23.061c0 7.587-6.173 13.759-13.759 13.759zm-7.473-362.85c-27.45-30.255-65.719-46.917-107.757-46.917h-43.332c-42.038 0-80.307 16.662-107.757 46.917-3.821 4.211-7.394 8.639-10.714 13.262 19.432-49.221 63.988-82.02 118.47-82.02h43.332c54.483 0 99.039 32.799 118.471 82.02-3.319-4.622-6.892-9.051-10.713-13.262z"/><path d="m371.765 382.873v-105.968c0-15.005-12.207-27.212-27.212-27.212h-177.106c-15.005 0-27.212 12.207-27.212 27.212v105.968c0 15.005 12.207 27.212 27.212 27.212h177.105c15.006 0 27.213-12.207 27.213-27.212zm-211.53-105.968c0-3.977 3.235-7.212 7.212-7.212h177.105c3.977 0 7.212 3.235 7.212 7.212v20.815h-191.529zm0 105.968v-65.152h28.348v7.286c0 5.523 4.478 10 10 10 5.523 0 10-4.477 10-10v-7.286h143.182v65.152c0 3.977-3.235 7.212-7.212 7.212h-177.106c-3.976 0-7.212-3.235-7.212-7.212z"/><path d="m150.235 224.598h211.529c5.523 0 10-4.477 10-10s-4.477-10-10-10h-211.529c-5.522 0-10 4.477-10 10s4.478 10 10 10z"/><path d="m265.42 441.36c-1.612-3.932-5.715-6.454-9.949-6.148-4.156.301-7.747 3.224-8.896 7.225-1.152 4.013.392 8.438 3.783 10.874 3.334 2.396 7.958 2.464 11.371.189 3.921-2.613 5.503-7.79 3.691-12.14z"/></g></g></svg>