<svg height="512" fill="#838383" viewBox="0 0 32 32" width="512" xmlns="http://www.w3.org/2000/svg"><g id="Layer_2" data-name="Layer 2"><path d="m24.89 16a8.91 8.91 0 0 0 -4.81-7 1 1 0 0 0 .92-1 1 1 0 0 0 -1-1h-.23a15.21 15.21 0 0 0 1.23-3.84 1 1 0 0 0 -1-1.16h-8a1 1 0 0 0 -1 1.16 15.21 15.21 0 0 0 1.23 3.84h-.23a1 1 0 0 0 -1 1 1 1 0 0 0 .92 1 8.91 8.91 0 0 0 -4.81 7l-1.11 10.7a3 3 0 0 0 .77 2.3 3.08 3.08 0 0 0 2.28 1h13.95a3.08 3.08 0 0 0 2.28-1 3 3 0 0 0 .72-2.3zm-8.89 7a3 3 0 1 1 3-3 3 3 0 0 1 -3 3z"/></g></svg>