<svg id="Capa_1" enable-background="new 0 0 512 512" height="512" viewBox="0 0 512 512" width="512" xmlns="http://www.w3.org/2000/svg"><g id="XMLID_2275_"><path id="XMLID_2346_" d="m402.184 502h50.316c22.091 0 40-17.909 40-40v-255c-36.238-17.947-59.167-54.889-59.167-95.328v-61.672h-120c0 31.664-25.669 57.333-57.333 57.333-31.664 0-57.333-25.669-57.333-57.333h-120v61.672c0 40.439-22.928 77.381-59.167 95.328v255c0 22.091 17.909 40 40 40h50.316z" fill="#8690a6"/><g fill="#b5bcc9"><g id="XMLID_2197_"><path id="XMLID_2339_" d="m19.5 262h88v64h-88z"/><path id="XMLID_2336_" d="m404.5 262h88v64h-88z" transform="matrix(-1 0 0 -1 897 588)"/><path id="XMLID_2250_" d="m211.996 262h88v64h-88z" transform="matrix(-1 0 0 -1 511.992 588)"/></g><g id="XMLID_1931_"><path id="XMLID_2191_" d="m19.5 374h88v64h-88z"/><path id="XMLID_2092_" d="m404.5 374h88v64h-88z" transform="matrix(-1 0 0 -1 897 812)"/><path id="XMLID_2091_" d="m211.996 374h88v64h-88z" transform="matrix(-1 0 0 -1 511.992 812)"/></g><path id="XMLID_2160_" d="m138.667 111c-11.046 0-20-8.954-20-20v-61c0-11.046 8.954-20 20-20 11.046 0 20 8.954 20 20v61c0 11.046-8.955 20-20 20z"/><path id="XMLID_1930_" d="m373.333 111c11.046 0 20-8.954 20-20v-61c0-11.046-8.954-20-20-20-11.046 0-20 8.954-20 20v61c0 11.046 8.955 20 20 20z"/></g><g id="XMLID_249_"><path id="XMLID_252_" d="m496.938 198.039c-33.064-16.375-53.604-49.469-53.604-86.367v-61.672c0-5.523-4.477-10-10-10h-30v-10c0-16.542-13.458-30-30-30s-30 13.458-30 30v10h-30c-5.523 0-10 4.477-10 10 0 26.1-21.234 47.333-47.333 47.333s-47.334-21.233-47.334-47.333c0-5.523-4.477-10-10-10h-30v-10c0-16.542-13.458-30-30-30s-30 13.458-30 30v10h-30c-5.523 0-10 4.477-10 10v61.672c0 36.897-20.54 69.991-53.604 86.367-3.408 1.687-5.563 5.16-5.563 8.961v255c0 27.57 22.43 50 50 50h151.496c5.523 0 10-4.477 10-10s-4.477-10-10-10h-151.496c-16.542 0-30-13.458-30-30v-14h78c5.523 0 10-4.477 10-10v-64c0-5.523-4.477-10-10-10h-78v-28h78c5.523 0 10-4.477 10-10v-64c0-5.523-4.477-10-10-10h-78v-38.983c17.007-9.598 31.331-23.316 41.669-39.973 11.447-18.443 17.498-39.665 17.498-61.372v-51.672h20v31c0 16.542 13.458 30 30 30s30-13.458 30-30v-31h20.741c4.845 32.403 32.862 57.333 66.593 57.333s61.747-24.93 66.592-57.333h20.741v31c0 16.542 13.458 30 30 30s30-13.458 30-30v-31h20v51.672c0 21.707 6.05 42.929 17.498 61.372 10.338 16.657 24.662 30.375 41.669 39.973v38.983h-78c-5.523 0-10 4.477-10 10v64c0 5.523 4.477 10 10 10h78v28h-78c-5.523 0-10 4.477-10 10v64c0 5.523 4.477 10 10 10h78v14c0 16.542-13.458 30-30 30h-151.505c-5.523 0-10 4.477-10 10s4.477 10 10 10h151.504c27.57 0 50-22.43 50-50v-255c0-3.801-2.155-7.274-5.562-8.961zm-399.438 185.961v44h-68v-44zm0-112v44h-68v-44zm51.167-181c0 5.514-4.486 10-10 10s-10-4.486-10-10v-61c0-5.514 4.486-10 10-10s10 4.486 10 10zm234.666 0c0 5.514-4.486 10-10 10s-10-4.486-10-10v-61c0-5.514 4.486-10 10-10s10 4.486 10 10zm31.167 225v-44h68v44zm0 112v-44h68v44z"/><path id="XMLID_891_" d="m211.996 336h88c5.523 0 10-4.477 10-10v-64c0-5.523-4.477-10-10-10h-88c-5.523 0-10 4.477-10 10v64c0 5.523 4.477 10 10 10zm10-64h68v44h-68z"/><path id="XMLID_1270_" d="m201.996 438c0 5.523 4.477 10 10 10h88c5.523 0 10-4.477 10-10v-64c0-5.523-4.477-10-10-10h-88c-5.523 0-10 4.477-10 10zm20-54h68v44h-68z"/><path id="XMLID_1271_" d="m256 492c-2.64 0-5.21 1.07-7.08 2.93-1.86 1.86-2.92 4.44-2.92 7.07s1.06 5.21 2.92 7.07c1.87 1.86 4.44 2.93 7.08 2.93 2.63 0 5.21-1.07 7.07-2.93s2.93-4.44 2.93-7.07-1.07-5.21-2.93-7.07-4.44-2.93-7.07-2.93z"/></g></g></svg>