<?xml version="1.0" encoding="iso-8859-1"?>
<!-- Generator: Adobe Illustrator 19.0.0, SVG Export Plug-In . SVG Version: 6.00 Build 0)  -->
<svg version="1.1" id="Layer_1" xmlns="http://www.w3.org/2000/svg" xmlns:xlink="http://www.w3.org/1999/xlink" x="0px" y="0px"
	 viewBox="0 0 512 512" style="enable-background:new 0 0 512 512;" xml:space="preserve">
<g>
	<g>
		<g>
			<path d="M389.944,192.399v-70.437c0-11.671-5.115-22.166-13.215-29.375V49.335C376.73,27.646,359.084,10,337.395,10
				c-9.491,0-18.208,3.379-25.011,8.998C305.483,7.62,292.978,0,278.728,0c-14.253,0-26.758,7.621-33.659,19
				c-6.804-5.618-15.521-8.997-25.012-8.997c-14.25,0-26.753,7.618-33.653,18.995c-6.804-5.62-15.521-9-25.014-9
				c-21.689,0-39.334,17.646-39.334,39.336v34.263v98.801c0,38.081,16.418,73.651,43.521,98.588v47.368
				c-11.45,3.755-19.745,14.537-19.745,27.225v11.328h-8.109c-5.522,0-10,4.477-10,10s4.478,10,10,10h8.109v11.328
				c0,12.688,8.295,23.47,19.745,27.225V502c0,5.523,4.478,10,10,10H315.48c5.522,0,10-4.477,10-10v-66.539
				c11.449-3.755,19.744-14.537,19.744-27.226v-11.328h8.109c5.523,0,10-4.477,10-10s-4.477-10-10-10h-8.109v-11.328
				c0-12.689-8.295-23.47-19.744-27.226v-31.564C365.387,282.527,389.944,239.244,389.944,192.399z M318.061,49.335
				c0-10.662,8.674-19.335,19.335-19.335s19.333,8.674,19.333,19.335v33.773c-1.994-0.313-4.037-0.479-6.119-0.479h-32.549V49.335z
				 M259.392,39.335c0-10.662,8.674-19.335,19.336-19.335c10.66,0,19.334,8.674,19.334,19.335v10V82.63h-19.336
				c-7.024,0-13.619,1.86-19.334,5.1V39.335z M200.725,98.456V59.335v-10c0-10.66,8.672-19.331,19.333-19.331
				c10.661,0,19.333,8.672,19.333,19.331v72.63v29.964c0,10.66-8.674,19.331-19.335,19.331c-10.659,0-19.331-8.672-19.331-19.331
				V98.456z M142.056,93.598V59.335c0-10.662,8.674-19.336,19.336-19.336c10.66,0,19.334,8.674,19.334,19.336v39.122v25.458
				c0,10.661-8.674,19.333-19.336,19.333c-10.66,0-19.334-8.673-19.334-19.333V93.598z M305.48,492H185.575v-15.343h41.036
				c5.522,0,10-4.477,10-10s-4.478-10-10-10h-41.036v-19.771H305.48V492z M325.223,408.236c0,4.77-3.881,8.65-8.652,8.65H174.486
				c-4.771,0-8.654-3.88-8.654-8.65v-42.655c0-4.77,3.883-8.65,8.654-8.65h142.086c4.771,0,8.652,3.88,8.652,8.65V408.236z
				 M310.723,292.244c-0.014,0.007-0.025,0.014-0.037,0.021c-0.006,0.003-0.012,0.007-0.018,0.01
				c-0.027,0.014-0.051,0.032-0.076,0.047c-0.258,0.144-0.51,0.297-0.752,0.463c-0.13,0.088-0.25,0.186-0.375,0.28
				c-0.131,0.099-0.265,0.194-0.391,0.299c-0.155,0.13-0.3,0.268-0.446,0.406c-0.087,0.081-0.177,0.16-0.261,0.245
				c-0.147,0.148-0.283,0.305-0.42,0.461c-0.076,0.087-0.155,0.172-0.228,0.262c-0.122,0.15-0.234,0.307-0.346,0.463
				c-0.08,0.109-0.16,0.216-0.235,0.329c-0.092,0.139-0.174,0.282-0.259,0.425c-0.083,0.14-0.168,0.279-0.244,0.424
				c-0.064,0.122-0.119,0.247-0.179,0.371c-0.082,0.172-0.164,0.343-0.236,0.52c-0.045,0.11-0.081,0.223-0.122,0.334
				c-0.07,0.192-0.142,0.384-0.2,0.581c-0.036,0.12-0.062,0.241-0.093,0.361c-0.049,0.189-0.1,0.378-0.138,0.571
				c-0.032,0.169-0.054,0.34-0.077,0.51c-0.021,0.147-0.049,0.292-0.063,0.441c-0.03,0.304-0.045,0.609-0.047,0.915
				c0,0.019-0.002,0.038-0.002,0.057v0.008c0,0.026-0.001,0.052,0,0.079v35.801H185.575v-30.733
				c7.712,4.801,15.97,8.875,24.716,12.073c1.135,0.415,2.293,0.611,3.434,0.611c4.08,0,7.911-2.515,9.393-6.568
				c1.897-5.187-0.77-10.93-5.957-12.826c-44.923-16.428-75.105-59.462-75.105-107.086v-34.253
				c5.715,3.24,12.311,5.101,19.336,5.101c7.211,0,13.968-1.959,19.785-5.359c2.801,18.353,18.336,32.566,37.276,33.332
				c-1.619,2.561-3.152,5.195-4.568,7.917c-2.549,4.9-0.643,10.938,4.257,13.486c1.475,0.767,3.052,1.13,4.606,1.13
				c3.61,0,7.099-1.962,8.88-5.387c15.102-29.033,44.814-47.069,77.54-47.069h12.109c5.523,0,10-4.477,10-10c0-5.523-4.477-10-10-10
				h-42.552c-10.66,0-19.334-8.674-19.334-19.335s8.674-19.333,19.334-19.333h71.885c3.846,0,7.422,1.141,10.436,3.083
				c0.148,0.103,0.302,0.196,0.456,0.291c5.092,3.485,8.441,9.337,8.441,15.959v70.437
				C369.944,233.922,347.253,272.174,310.723,292.244z"/>
			<path d="M215.47,220.868c-5.409-1.119-10.699,2.36-11.816,7.77c-0.029,0.142-0.057,0.286-0.082,0.436
				c-0.968,5.382,2.572,10.555,7.957,11.589c0.637,0.122,1.271,0.181,1.896,0.181c4.7,0,8.891-3.33,9.811-8.116
				c0.01-0.054,0.027-0.152,0.041-0.234C224.275,227.152,220.815,221.972,215.47,220.868z"/>
			<path d="M255.34,476.661h0.238c5.523,0,10-4.477,10-10c0-5.523-4.476-10-10-10h-0.238c-5.523,0-10,4.477-10,10
				S249.817,476.661,255.34,476.661z"/>
			<path d="M245.526,376.908c-5.508,0-10,4.492-10,10s4.492,10,10,10s10-4.492,10-10
				C255.526,381.401,251.034,376.908,245.526,376.908z"/>
			<path d="M195.53,376.908c-5.508,0-10,4.492-10,10s4.492,10,10,10s10-4.492,10-10C205.53,381.401,201.038,376.908,195.53,376.908z
				"/>
			<path d="M295.522,376.908c-5.508,0-10,4.492-10,10s4.492,10,10,10s10-4.492,10-10
				C305.522,381.401,301.03,376.908,295.522,376.908z"/>
		</g>
	</g>
</g>
<g>
</g>
<g>
</g>
<g>
</g>
<g>
</g>
<g>
</g>
<g>
</g>
<g>
</g>
<g>
</g>
<g>
</g>
<g>
</g>
<g>
</g>
<g>
</g>
<g>
</g>
<g>
</g>
<g>
</g>
</svg>
