<?xml version="1.0" encoding="iso-8859-1"?>
<!-- Generator: Adobe Illustrator 19.0.0, SVG Export Plug-In . SVG Version: 6.00 Build 0)  -->
<svg version="1.1" id="Capa_1" xmlns="http://www.w3.org/2000/svg" xmlns:xlink="http://www.w3.org/1999/xlink" x="0px" y="0px"
	 viewBox="0 0 512 512" style="enable-background:new 0 0 512 512;" xml:space="preserve">
<path style="fill:#607D8B;" d="M480,224.069c-15.832,0.651-31.384,4.391-45.781,11.008L74.667,288.069
	c-36.704,1.476-67.595,27.954-74.667,64c0,31.637,26.603,64,224,64l11.925-0.235c118.528-6.763,271.424-109.525,275.797-146.795
	c0.031-0.476,0.031-0.953,0-1.429C511.403,243.803,508.736,224.069,480,224.069z"/>
<path style="fill:#37474F;" d="M319.403,115.419c-0.954-5.042-5.364-8.69-10.496-8.683c-18.505,0.758-37.025-1.037-55.04-5.333
	c-16.741-4.12-33.969-5.915-51.2-5.333c-17.177-0.354-34.147,3.802-49.216,12.053c-5.119,2.915-6.906,9.428-3.991,14.547
	c0.432,0.759,0.956,1.461,1.559,2.093c18.508,21.211,44.863,33.96,72.981,35.307c21.066-1.705,41.448-8.278,59.541-19.2
	c9.216-4.587,18.859-9.387,29.291-13.504C317.614,125.485,320.376,120.464,319.403,115.419z"/>
<path style="fill:#455A64;" d="M467.413,315.589c-2.56,3.627-14.933,16.427-62.08,25.813c-6.4,1.28-13.44,2.56-21.333,3.627
	c-12.373,1.92-26.453,3.413-42.667,4.48c-6.827,0.64-13.867,1.067-21.333,1.28c-16,0.853-33.707,1.28-53.333,1.28
	c-170.88,0-198.827-43.307-201.387-48.427c-1.483-2.604-1.718-5.737-0.64-8.533l17.707-49.92l8.747-23.893l26.88-75.52
	c7.603-16.024,20.071-29.239,35.627-37.76c4.212-2.318,9.453-1.531,12.8,1.92c14.513,16.997,35.294,27.388,57.6,28.8
	c17.768-1.908,34.891-7.737,50.133-17.067c9.6-4.693,19.627-9.813,30.933-14.293c18.307-7.394,37.856-11.231,57.6-11.307
	c31.147,0,43.093,18.347,52.907,50.133c4.693,15.573,18.987,58.24,31.36,95.573c2.347,7.04,4.693,13.653,6.827,20.053
	c8.32,24.747,14.72,43.733,14.933,44.16C469.786,309.214,469.313,312.764,467.413,315.589z"/>
<g>
	<path style="fill:#546E7A;" d="M440.747,266.096c-1.493,0.64-14.72,4.907-35.627,10.24c0.092,0.351,0.163,0.707,0.213,1.067v64
		c-6.4,1.28-13.44,2.56-21.333,3.627v-63.787c-12.587,2.773-27.093,5.547-42.667,8.32v59.947c-6.827,0.64-13.867,1.067-21.333,1.28
		v-58.24c-28.272,3.989-56.782,6.056-85.333,6.187c-110.08,0-145.707-45.013-147.2-46.933l-5.12-6.613l8.747-23.893l13.44,17.707
		c0.213,0.213,31.787,38.4,130.133,38.4c67.551-1.155,134.613-11.709,199.253-31.36l13.013-4.267
		c2.347,7.04,4.693,13.653,6.827,20.053L440.747,266.096z"/>
	<path style="fill:#546E7A;" d="M511.765,267.056c-0.413-5.357-4.805-9.537-10.176-9.685c-5.46-0.147-10.189,3.762-11.072,9.152
		c-3.221,19.371-140.395,121.408-255.829,128c-5.891,0.165-10.533,5.074-10.368,10.965s5.074,10.533,10.965,10.368l0,0
		c204.8-2.133,261.035-64.832,263.339-67.499c0.844-0.982,1.502-2.11,1.941-3.328c7.344-21.801,11.203-44.623,11.435-67.627
		C512,273.733,512,270.277,511.765,267.056z"/>
</g>
<path d="M224,416.069c-197.397,0-224-32.363-224-64c6.537-33.285,33.424-58.786,67.008-63.552l50.944-142.699
	c15.643-32.13,49.034-51.74,84.715-49.749c17.23-0.578,34.458,1.217,51.2,5.333c18.156,4.318,36.821,6.113,55.467,5.333
	c5.891,0,10.667,4.776,10.667,10.667c0,5.891-4.776,10.667-10.667,10.667c-20.286,0.811-40.587-1.177-60.331-5.909
	c-15.15-3.725-30.745-5.326-46.336-4.757c-26.895-1.832-52.333,12.393-64.853,36.267L84.715,302.32
	c-1.515,4.248-5.538,7.083-10.048,7.083c-24.913,1.768-46.14,18.75-53.333,42.667c0,37.12,126.976,42.667,202.667,42.667
	c185.6,0,247.957-50.368,257.344-59.093c5.941-18.853,9.082-38.475,9.323-58.24c0-32-1.408-32-10.667-32
	c-13.16,0.695-26.058,3.948-37.973,9.579c-5.302,2.586-11.697,0.385-14.283-4.917c-2.586-5.302-0.385-11.696,4.917-14.283
	c14.845-7.011,30.938-10.992,47.339-11.712c32,0,32,23.467,32,53.333c-0.188,23.004-4.004,45.833-11.307,67.648
	c-0.445,1.209-1.102,2.329-1.941,3.307C496.384,351.131,437.995,416.069,224,416.069z"/>
<path d="M224,416.069c-5.891,0-10.667-4.776-10.667-10.667c0-5.891,4.776-10.667,10.667-10.667
	c116.245,0,263.147-107.093,266.667-128.277c0-5.82,4.718-10.539,10.538-10.539c0.043,0,0.086,0,0.129,0.001
	c5.917,0.059,10.679,4.878,10.667,10.795C512,305.669,345.429,416.069,224,416.069z"/>
<path d="M234.667,298.736c-109.995,0-145.664-44.928-147.2-46.933c-3.535-4.713-2.579-11.399,2.133-14.933
	c4.713-3.535,11.399-2.58,14.933,2.133c0.235,0.299,32,38.4,130.133,38.4c67.582-1.133,134.673-11.724,199.317-31.467
	c5.643-1.691,11.589,1.512,13.28,7.155c1.624,5.418-1.264,11.162-6.581,13.09C373.918,286.816,304.541,297.779,234.667,298.736z"/>
<path d="M266.667,352.069c-170.816,0-198.784-43.392-201.408-48.341c-2.652-5.26-0.538-11.674,4.722-14.327
	c4.958-2.5,11.005-0.778,13.902,3.959c1.024,1.429,28.587,37.376,182.784,37.376c124.843,0,167.339-17.771,179.499-25.024
	c-9.408-27.733-42.923-126.891-51.029-153.173c-9.216-29.824-16.512-35.136-32.469-35.136c-28.099,1.252-55.463,9.367-79.701,23.637
	c-17.923,10.808-38.105,17.321-58.965,19.029c-40.533,0-51.2-10.411-53.099-19.2c-1.211-5.765,2.481-11.421,8.246-12.631
	c4.635-0.973,9.356,1.226,11.594,5.399c10.461,4.539,21.918,6.295,33.259,5.099c17.53-1.88,34.426-7.622,49.472-16.811
	c27.168-15.787,57.795-24.666,89.195-25.856c31.253,0,43.051,18.411,52.864,50.197c9.195,29.739,52.821,158.421,53.333,159.723
	c1.104,3.237,0.588,6.807-1.387,9.6C463.061,321.669,433.067,352.069,266.667,352.069z"/>
<path d="M330.667,341.403c-5.891,0-10.667-4.776-10.667-10.667v-42.667c0-5.891,4.776-10.667,10.667-10.667
	c5.891,0,10.667,4.776,10.667,10.667v42.667C341.333,336.627,336.558,341.403,330.667,341.403z"/>
<path d="M394.667,341.403c-5.891,0-10.667-4.776-10.667-10.667v-53.333c0-5.891,4.776-10.667,10.667-10.667
	c5.891,0,10.667,4.776,10.667,10.667v53.333C405.333,336.627,400.558,341.403,394.667,341.403z"/>
<g>
</g>
<g>
</g>
<g>
</g>
<g>
</g>
<g>
</g>
<g>
</g>
<g>
</g>
<g>
</g>
<g>
</g>
<g>
</g>
<g>
</g>
<g>
</g>
<g>
</g>
<g>
</g>
<g>
</g>
</svg>
