<?xml version="1.0" encoding="iso-8859-1"?>
<!-- Generator: Adobe Illustrator 19.0.0, SVG Export Plug-In . SVG Version: 6.00 Build 0)  -->
<svg version="1.1" id="Capa_1" xmlns="http://www.w3.org/2000/svg" xmlns:xlink="http://www.w3.org/1999/xlink" x="0px" y="0px"
	 viewBox="0 0 512.109 512.109" style="enable-background:new 0 0 512.109 512.109;" xml:space="preserve">
<g>
	<path style="fill:#B0BEC5;" d="M69.708,72.012c-2.456-5.355-8.788-7.705-14.142-5.249c-1.546,0.709-2.899,1.777-3.948,3.115
		c-6.294,7.989-10.173,17.612-11.179,27.733L0.054,500.321c-0.589,5.861,3.685,11.091,9.546,11.68
		c0.372,0.037,0.746,0.055,1.12,0.053h74.667c5.469,0.032,10.076-4.078,10.667-9.515l32-298.667
		c0.206-1.903-0.103-3.826-0.896-5.568L69.708,72.012z"/>
	<path style="fill:#B0BEC5;" d="M471.67,97.462c-1.212-12.173-6.593-23.553-15.232-32.213c-2.497-2.54-6.111-3.64-9.6-2.923
		c-3.503,0.695-6.426,3.098-7.787,6.4l-54.187,129.92c-0.705,1.647-0.984,3.444-0.811,5.227l32,298.667
		c0.591,5.437,5.198,9.547,10.667,9.515h74.667c5.891,0.03,10.69-4.722,10.72-10.613c0.002-0.374-0.016-0.748-0.053-1.12
		L471.67,97.462z"/>
</g>
<path style="fill:#CFD8DC;" d="M456.588,65.505c-4.265-4.51-9.328-8.191-14.933-10.859l-45.141-21.717
	c-18.322-6.728-37.602-10.48-57.109-11.115c-4.337-0.155-8.335,2.334-10.112,6.293c-1.769,3.949-0.977,8.576,2.005,11.712
	c3.064,3.307,5.616,7.053,7.573,11.115l19.584,39.189l-102.4,37.248l-102.4-37.248l19.605-39.211
	c1.957-4.061,4.51-7.808,7.573-11.115c2.982-3.136,3.775-7.763,2.005-11.712c-1.826-3.916-5.792-6.385-10.112-6.293
	c-19.839,0.666-39.438,4.556-58.027,11.52L70.156,54.646c-7.32,3.579-13.71,8.807-18.667,15.275
	c-2.354,3.121-2.812,7.279-1.195,10.837l56.427,124.267v275.029c0,4.037,2.279,7.728,5.888,9.536
	c1.835,0.917,46.059,22.464,143.445,22.464S397.665,490.508,399.5,489.59c3.609-1.808,5.888-5.499,5.888-9.536v-275.2l53.333-128
	C460.296,72.98,459.462,68.543,456.588,65.505z"/>
<path style="fill:#B0BEC5;" d="M245.388,512.054c-5.891,0-10.667-4.776-10.667-10.667V128.054c0-5.891,4.776-10.667,10.667-10.667
	c5.891,0,10.667,4.776,10.667,10.667v373.333C256.054,507.279,251.279,512.054,245.388,512.054z"/>
<path style="fill:#90A4AE;" d="M347.062,25.441C332.996,9.32,312.649,0.064,291.254,0.054h-70.4
	c-21.395,0.01-41.742,9.266-55.808,25.387c-3.869,4.443-3.403,11.18,1.04,15.049c2.35,2.046,5.477,2.963,8.56,2.508l1.28-0.149
	l71.403,101.973c3.389,4.819,10.042,5.978,14.861,2.59c1.006-0.707,1.882-1.584,2.59-2.59l71.403-101.973l1.28,0.149
	c5.828,0.859,11.249-3.169,12.108-8.997C350.025,30.919,349.109,27.791,347.062,25.441z"/>
<g>
	<path style="fill:#B0BEC5;" d="M264.78,132.598L190.113,25.932c-3.861-5.504-11.861-5.013-18.624-3.989
		c-2.347,0.353-4.509,1.479-6.144,3.2c-4.535,4.812-8.312,10.286-11.2,16.235l-24.96,49.92c-2.631,5.271-0.49,11.677,4.781,14.307
		c0.36,0.18,0.73,0.339,1.107,0.477l117.333,42.667c1.169,0.427,2.404,0.644,3.648,0.64c5.891-0.005,10.663-4.785,10.658-10.676
		C266.71,136.524,266.035,134.39,264.78,132.598z"/>
	<path style="fill:#B0BEC5;" d="M382.924,91.276l-24.96-49.92c-2.888-5.948-6.665-11.422-11.2-16.235
		c-1.635-1.721-3.797-2.847-6.144-3.2c-6.763-1.024-14.741-1.493-18.624,4.011l-74.667,106.667
		c-3.381,4.824-2.212,11.476,2.612,14.857c1.791,1.256,3.926,1.93,6.114,1.932c1.244,0.004,2.479-0.213,3.648-0.64l117.333-42.667
		c5.534-2.019,8.384-8.142,6.365-13.677c-0.138-0.378-0.297-0.748-0.477-1.107L382.924,91.276z"/>
</g>
<path d="M256.054,149.388c-1.244,0.001-2.479-0.216-3.648-0.64l-117.333-42.667c-5.534-2.019-8.384-8.142-6.365-13.677
	c0.138-0.378,0.297-0.748,0.477-1.107l24.981-49.963c12.571-25.361,38.467-41.371,66.773-41.28h70.229
	c28.306-0.091,54.202,15.919,66.773,41.28l24.981,49.963c2.631,5.271,0.49,11.677-4.781,14.307c-0.36,0.18-0.73,0.339-1.107,0.477
	l-117.333,42.667C258.533,149.172,257.298,149.389,256.054,149.388z M153.654,90.124l102.4,37.248l102.4-37.248L338.828,50.87
	c-8.973-18.104-27.453-29.536-47.659-29.483H220.94c-20.221-0.07-38.722,11.365-47.701,29.483L153.654,90.124z"/>
<path d="M117.388,213.388c-4.189,0.007-7.994-2.438-9.728-6.251L54.326,89.804c-2.319-5.416,0.192-11.685,5.608-14.004
	c5.244-2.245,11.327,0.033,13.806,5.172l53.333,117.333c2.439,5.362,0.069,11.687-5.294,14.126
	C120.4,213.058,118.903,213.384,117.388,213.388z"/>
<path d="M501.388,512.054h-74.667c-5.469,0.032-10.076-4.078-10.667-9.515l-10.667-100.139v77.653c0,4.037-2.279,7.728-5.888,9.536
	c-1.835,0.917-46.059,22.464-143.445,22.464s-141.611-21.547-143.445-22.464c-3.609-1.808-5.888-5.499-5.888-9.536v-77.653
	L96.054,502.518c-0.58,5.446-5.19,9.567-10.667,9.536H10.721c-5.891,0.03-10.69-4.722-10.72-10.613
	c-0.002-0.374,0.016-0.748,0.053-1.12L40.396,97.484c1.93-18.422,13.219-34.548,29.867-42.667l44.373-21.333
	c21.357-7.96,43.96-12.056,66.752-12.096c3.483-0.004,6.748,1.692,8.747,4.544l65.92,94.187l65.92-94.187
	c1.999-2.852,5.264-4.548,8.747-4.544c22.409-0.013,44.648,3.901,65.707,11.563l45.333,21.76
	c16.645,8.122,27.932,24.247,29.867,42.667l40.427,402.944c0.589,5.861-3.685,11.091-9.546,11.68
	C502.136,512.038,501.762,512.056,501.388,512.054z M436.3,490.721h53.333L450.486,99.617c-1.178-11.064-7.975-20.74-17.984-25.6
	L388.15,52.684c-16.682-6.011-34.203-9.373-51.925-9.963l-71.424,102.123c-1.999,2.852-5.264,4.548-8.747,4.544l0,0
	c-3.483,0.004-6.748-1.692-8.747-4.544L175.905,42.721c-18.071,0.574-35.937,4.016-52.928,10.197L79.585,73.868
	c-10.003,4.863-16.793,14.539-17.963,25.6L22.518,490.721h53.333l30.869-289.131c0.666-5.636,5.574-9.799,11.243-9.536
	c5.665,0.306,10.099,4.993,10.091,10.667v270.187c41.325,13.255,84.626,19.281,128,17.813c43.374,1.468,86.675-4.558,128-17.813
	V202.721c-0.312-5.891,4.21-10.92,10.101-11.232s10.92,4.21,11.232,10.101L436.3,490.721z"/>
<path d="M245.388,512.054c-5.891,0-10.667-4.776-10.667-10.667V128.054c0-5.891,4.776-10.667,10.667-10.667
	c5.891,0,10.667,4.776,10.667,10.667v373.333C256.054,507.279,251.279,512.054,245.388,512.054z"/>
<path d="M394.721,213.388c-5.891-0.008-10.66-4.79-10.652-10.681c0.002-1.401,0.28-2.788,0.818-4.082l53.333-128
	c2.268-5.437,8.515-8.007,13.952-5.739c5.437,2.268,8.007,8.515,5.739,13.952l-53.333,128
	C402.915,210.811,399.027,213.394,394.721,213.388z"/>
<g>
</g>
<g>
</g>
<g>
</g>
<g>
</g>
<g>
</g>
<g>
</g>
<g>
</g>
<g>
</g>
<g>
</g>
<g>
</g>
<g>
</g>
<g>
</g>
<g>
</g>
<g>
</g>
<g>
</g>
</svg>
