<svg height="512pt" viewBox="-106 0 512 512.00065" width="512pt" xmlns="http://www.w3.org/2000/svg"><g fill="#5fa4ff" fill-rule="evenodd"><path d="m273.597656 50.90625 16.402344 446.183594-84.554688 4.90625-55.445312-352.566406v-20.515626c22 0 40-18 40-40v-38.007812zm0 0"/><path d="m150 149.429688-55.445312 352.566406-84.554688-4.910156 16.402344-446.179688h123.597656zm0 0"/><path d="m190 88.914062c0 22-18 40-40 40v-78.007812h40zm0 0"/><path d="m218.898438 50.90625h-28.898438v-40.90625h83.992188v40.90625zm0 0"/><path d="m190 10v40.90625h-163.992188v-40.90625zm0 0"/></g><path d="m298.492188 455.925781c-.203126-5.519531-4.835938-9.832031-10.359376-9.625-5.519531.203125-9.828124 4.839844-9.625 10.359375l1.136719 31.011719-65.730469 3.816406-53.914062-342.84375v-10.734375c22.792969-4.644531 40-24.851562 40-48.996094v-28.007812h12.269531c9.015625 19.15625 27.914063 38.195312 54.003907 54.367188l8.925781 251.433593c.191406 5.398438 4.628906 9.648438 9.988281 9.648438.121094 0 .242188-.003907.359375-.007813 5.519531-.195312 9.835937-4.828125 9.640625-10.347656l-11.195312-315.269531v-40.730469c0-5.523438-4.476563-10-10-10h-137.984376c-5.523437 0-10 4.476562-10 10s4.476563 10 10 10h43.992188v20.90625h-143.992188v-20.90625h10c5.523438 0 10-4.476562 10-10s-4.476562-10-10-10h-20c-5.523437 0-10 4.476562-10 10v40.722656l-15.9999995 446.007813c-.1953125 5.433593 3.9843755 10.027343 9.4140625 10.339843l84.554687 4.910157c5.144532.324219 9.660157-3.347657 10.457032-8.429688l45.566406-289.75 45.566406 289.75c.769532 4.886719 4.980469 8.445313 9.871094 8.445313.195312 0 .390625-.003906.585938-.015625l84.554687-4.910157c5.429687-.3125 9.613281-4.914062 9.414063-10.351562zm-63.308594-395.019531h29.160156l1.054688 29.757812c-13.191407-9.503906-23.476563-19.632812-30.214844-29.757812zm-35.183594-40.90625h63.992188v20.90625h-63.992188zm-20 68.914062c0 13.039063-8.359375 24.160157-20 28.289063v-56.296875h20zm-115.265625-28.007812c-6.792969 10.085938-17.132813 20.285156-30.144531 29.726562l1.066406-29.726562zm21.351563 430.582031-65.742188-3.816406 13.359375-372.382813c26.042969-16.140624 44.941406-35.183593 54.019531-54.382812h52.277344v87.738281zm0 0"/><path d="m91.003906 20h.007813c5.523437 0 9.996093-4.476562 9.996093-10s-4.480468-10-10.003906-10c-5.523437 0-10 4.476562-10 10s4.476563 10 10 10zm0 0"/><path d="m286.21875 401.34375c-5.511719.34375-9.699219 5.097656-9.355469 10.609375.332031 5.296875 4.734375 9.375 9.972657 9.375.210937 0 .421874-.007813.632812-.019531 5.511719-.347656 9.699219-5.09375 9.355469-10.605469v-.007813c-.34375-5.511718-5.078125-9.714843-10.605469-9.351562zm0 0"/></svg>