<svg id="Layer_1" height="512" viewBox="0 0 512 512" width="512" xmlns="http://www.w3.org/2000/svg" data-name="Layer 1"><path d="m495.8 127.57v256.86h-479.6v-256.86z" fill="#58935e"/><path d="m433.71 159h-356.42c0 18-14.29 31.38-31.29 31.88v130.24c17 .5 31.29 14.88 31.29 32.88h356.42c0-18 13.29-32.38 30.29-32.88v-130.24c-17-.5-30.29-13.88-30.29-31.88z" fill="#7fd695"/><g fill="#61b257"><path d="m413 235.58a20.42 20.42 0 1 1 -20.42 20.42 20.415 20.415 0 0 1 20.42-20.42z"/><path d="m256 160.02a95.98 95.98 0 1 1 -95.98 95.98 95.978 95.978 0 0 1 95.98-95.98zm69.71 95.98a69.71 69.71 0 1 0 -69.71 69.71 69.71 69.71 0 0 0 69.71-69.71z"/><path d="m99 235.58a20.42 20.42 0 1 1 -20.41 20.42 20.417 20.417 0 0 1 20.41-20.42z"/></g><path d="m76 321.12v-130.24c17-.5 31.29-13.88 31.29-31.88h-30c0 18-14.29 31.38-31.29 31.88v130.24c17 .5 31.29 14.88 31.29 32.88h30c0-18-14.29-32.38-31.29-32.88z" fill="#6db57c"/><path d="m279.436 287.246a33.614 33.614 0 0 1 -35.731-7.809 26.667 26.667 0 0 1 -5.466-7.437h27.313a6 6 0 0 0 0-12h-31.334a28.683 28.683 0 0 1 -.157-7h40.552a6 6 0 1 0 0-12h-37.1a35.154 35.154 0 0 1 6.191-8.614 33.534 33.534 0 0 1 35.732-7.6 6.011 6.011 0 0 0 4.313-11.221 45.561 45.561 0 0 0 -48.531 10.34 47.241 47.241 0 0 0 -10.727 17.095h-10.085a6 6 0 0 0 0 12h7.633a38.98 38.98 0 0 0 .1 7h-7.735a6 6 0 0 0 0 12h10.596a43.638 43.638 0 0 0 10.218 15.922 45.586 45.586 0 0 0 48.529 10.462 5.972 5.972 0 1 0 -4.312-11.138z" fill="#eadf53"/></svg>