<?xml version="1.0" encoding="iso-8859-1"?>
<!-- Generator: Adobe Illustrator 19.0.0, SVG Export Plug-In . SVG Version: 6.00 Build 0)  -->
<svg version="1.1" id="Capa_1" xmlns="http://www.w3.org/2000/svg" xmlns:xlink="http://www.w3.org/1999/xlink" x="0px" y="0px"
	 viewBox="0 0 512.039 512.039" style="enable-background:new 0 0 512.039 512.039;" xml:space="preserve">
<path style="fill:#CFD8DC;" d="M443.934,44.967C409.609,18.001,336.158,1.02,333.043,0.316c-5.743-1.313-11.463,2.277-12.776,8.02
	c-0.818,3.578,0.261,7.326,2.856,9.921c9.088,9.088-2.453,50.539-19.563,86.677l-34.304-8.533c-0.842-0.226-1.709-0.348-2.581-0.363
	h-21.333c-0.87,0.001-1.737,0.108-2.581,0.32l-34.304,8.533c-17.131-36.075-28.672-77.547-19.563-86.635
	c4.166-4.165,4.167-10.919,0.001-15.085c-2.595-2.596-6.343-3.675-9.921-2.856c-3.115,0.704-76.565,17.685-110.891,44.651
	C32.521,72.913,22.409,207.996,21.342,223.313c-0.292,4.347,2.09,8.435,6.016,10.325c25.059,11.615,51.854,19.038,79.317,21.973
	v224.427c0.003,3.939,2.176,7.557,5.653,9.408c1.749,0.917,43.605,22.592,143.68,22.592s141.931-21.675,143.68-22.592
	c3.477-1.852,5.651-5.469,5.653-9.408V255.612c27.456-2.938,54.244-10.361,79.296-21.973c3.934-1.884,6.325-5.973,6.037-10.325
	C489.609,207.996,479.497,72.913,443.934,44.967z"/>
<path style="fill:#90A4AE;" d="M308.873,9.319c-2.392-2.947-6.169-4.401-9.92-3.819c-14.213,2.49-28.548,4.228-42.944,5.205
	C241.612,9.728,227.278,7.99,213.065,5.5c-5.822-0.902-11.272,3.085-12.175,8.907c-0.28,1.806-0.091,3.653,0.548,5.365l33.92,90.667
	c1.557,4.167,5.536,6.93,9.984,6.933h21.333c4.448-0.003,8.427-2.767,9.984-6.933l33.92-90.667
	C311.903,16.231,311.254,12.255,308.873,9.319z"/>
<path style="fill:#B0BEC5;" d="M245.342,192.039c-5.891,0-10.667-4.776-10.667-10.667v-74.667c0-5.891,4.776-10.667,10.667-10.667
	c5.891,0,10.667,4.776,10.667,10.667v74.667C256.009,187.263,251.233,192.039,245.342,192.039z"/>
<circle style="fill:#90A4AE;" cx="266.675" cy="160.039" r="10.667"/>
<g>
	<path style="fill:#B0BEC5;" d="M255.326,102.972l-33.92-90.667c-1.328-3.559-4.448-6.143-8.192-6.784
		c-16.128-2.752-29.867-5.291-29.867-5.291c-3.451-0.663-7.005,0.442-9.472,2.944c-25.28,25.259,8.533,97.493,19.371,119.04
		c1.809,3.55,5.445,5.796,9.429,5.824c0.87-0.004,1.737-0.111,2.581-0.32l42.667-10.667c5.715-1.43,9.188-7.222,7.758-12.937
		C255.584,103.728,255.466,103.346,255.326,102.972L255.326,102.972z"/>
	<path style="fill:#B0BEC5;" d="M338.227,3.153c-2.481-2.479-6.023-3.58-9.472-2.944c0,0-13.803,2.539-29.867,5.291
		c-3.744,0.641-6.864,3.225-8.192,6.784l-33.92,90.667c-2.061,5.519,0.741,11.663,6.26,13.725c0.374,0.14,0.756,0.258,1.143,0.355
		l42.667,10.667c0.816,0.209,1.654,0.324,2.496,0.341c4.015,0.004,7.692-2.247,9.515-5.824
		C329.779,100.668,363.486,28.412,338.227,3.153z"/>
</g>
<path d="M117.342,256.039c-31.15-1.588-61.699-9.187-89.963-22.379c-3.934-1.884-6.325-5.973-6.037-10.325
	c1.045-15.339,11.115-150.464,46.72-178.347c34.196-21.02,71.693-36.122,110.912-44.672c5.743-1.313,11.463,2.277,12.776,8.02
	c0.818,3.578-0.261,7.326-2.856,9.921c-9.088,9.088,2.453,50.56,19.563,86.677l34.304-8.533c3.186-0.817,6.571-0.099,9.152,1.941
	c2.574,2.013,4.084,5.095,4.096,8.363v74.667c0,5.891-4.776,10.667-10.667,10.667c-5.891,0-10.667-4.776-10.667-10.667V120.38
	l-29.419,7.36c-4.827,1.205-9.846-1.088-12.096-5.525c-16.462-29.553-26.153-62.394-28.373-96.149
	c-29.6,7.274-57.811,19.337-83.52,35.712C60.979,77.671,47.561,162.535,43.209,217.319c23.459,10.223,48.575,16.114,74.133,17.387
	c5.891,0,10.667,4.776,10.667,10.667C128.009,251.263,123.233,256.039,117.342,256.039z"/>
<path d="M245.342,117.372c-4.443,0-8.42-2.754-9.984-6.912l-32-85.333c-2.071-5.515,0.721-11.665,6.236-13.736
	c5.511-2.069,11.657,0.717,13.732,6.226l32,85.333c2.074,5.514-0.715,11.665-6.229,13.739
	C247.899,117.149,246.625,117.381,245.342,117.372z"/>
<path d="M394.675,256.039c-5.891,0-10.667-4.776-10.667-10.667c0-5.891,4.776-10.667,10.667-10.667
	c25.565-1.27,50.689-7.161,74.155-17.387c-4.267-54.784-17.771-139.648-38.059-155.541c-25.71-16.386-53.931-28.45-83.541-35.712
	c-2.221,33.756-11.912,66.596-28.373,96.149c-2.284,4.402-7.273,6.681-12.096,5.525l-41.408-10.368h-20.011
	c-5.891,0-10.667-4.776-10.667-10.667c0-5.891,4.776-10.667,10.667-10.667h21.333c0.87,0.001,1.737,0.108,2.581,0.32l34.304,8.533
	c17.067-36.117,28.651-77.611,19.563-86.677c-4.166-4.165-4.167-10.919-0.001-15.085c2.595-2.596,6.343-3.675,9.921-2.856
	c39.226,8.547,76.73,23.65,110.933,44.672c35.605,27.904,45.696,163.029,46.72,178.347c0.292,4.347-2.09,8.435-6.016,10.325
	C456.407,246.829,425.843,254.443,394.675,256.039z"/>
<path d="M266.675,117.372c-1.283,0.009-2.557-0.223-3.755-0.683c-5.514-2.074-8.303-8.225-6.229-13.739l32-85.333
	c2.076-5.513,8.229-8.299,13.742-6.223c5.509,2.075,8.296,8.221,6.226,13.732l-32,85.333
	C275.096,114.618,271.118,117.372,266.675,117.372z"/>
<path d="M256.009,512.039c-100.267,0-141.952-21.675-143.68-22.592c-3.477-1.852-5.651-5.469-5.653-9.408V181.372
	c0.872-20.389-5.591-40.416-18.219-56.448c-4.092-4.237-3.975-10.99,0.262-15.083c4.134-3.992,10.687-3.992,14.82,0
	c16.815,19.944,25.545,45.466,24.469,71.531v291.669c41.29,13.395,84.625,19.375,128,17.664c43.377,1.723,86.715-4.265,128-17.685
	V181.372c-1.087-26.069,7.636-51.599,24.448-71.552c4.093-4.237,10.845-4.354,15.083-0.262c4.237,4.093,4.354,10.845,0.262,15.083
	c-0.086,0.089-0.173,0.176-0.262,0.262c-12.625,16.041-19.081,36.076-18.197,56.469v298.667c-0.003,3.939-2.176,7.557-5.653,9.408
	C397.961,490.364,356.275,512.039,256.009,512.039z"/>
<path d="M256.009,32.039c-25.741-2.175-51.339-5.8-76.672-10.859c-5.805-1.002-9.699-6.52-8.697-12.326
	c1.002-5.805,6.52-9.699,12.326-8.697c0.128,0.022,0.255,0.046,0.382,0.073c24.003,4.86,48.263,8.357,72.661,10.475
	c24.399-2.118,48.658-5.615,72.661-10.475c5.765-1.213,11.421,2.477,12.634,8.242c1.213,5.765-2.477,11.421-8.242,12.634
	c-0.127,0.027-0.254,0.051-0.382,0.073C307.348,26.238,281.75,29.864,256.009,32.039z"/>
<circle cx="266.675" cy="160.039" r="10.667"/>
<g>
</g>
<g>
</g>
<g>
</g>
<g>
</g>
<g>
</g>
<g>
</g>
<g>
</g>
<g>
</g>
<g>
</g>
<g>
</g>
<g>
</g>
<g>
</g>
<g>
</g>
<g>
</g>
<g>
</g>
</svg>
