<?xml version="1.0" encoding="iso-8859-1"?>
<!-- Generator: Adobe Illustrator 19.0.0, SVG Export Plug-In . SVG Version: 6.00 Build 0)  -->
<svg version="1.1" id="Capa_1" xmlns="http://www.w3.org/2000/svg" xmlns:xlink="http://www.w3.org/1999/xlink" x="0px" y="0px"
	 viewBox="0 0 512 512" style="enable-background:new 0 0 512 512;" xml:space="preserve">
<path style="fill:#455A64;" d="M496.341,291.421c-10.079-9.703-23.698-14.847-37.675-14.229
	c-51.755,0-147.413-16.341-183.787-60.139c-16.058-18.918-29.888-39.619-41.216-61.696c-2.487-5.34-8.832-7.653-14.173-5.166
	c-0.134,0.062-0.267,0.128-0.398,0.195c-28.575,13.15-59.638,20.017-91.093,20.139c-31.459-0.171-62.52-7.043-91.115-20.16
	c-5.244-2.684-11.671-0.61-14.356,4.634c-1.45,2.831-1.56,6.162-0.3,9.083c2.517,5.845-3.008,18.688-8.363,31.104
	C5.916,210.748,1.199,227.758,0,245.192c0.424,22.29,4.015,44.407,10.667,65.685v40.981c0,5.891,4.776,10.667,10.667,10.667H160
	c5.891,0,10.667-4.776,10.667-10.667v-11.989c36.732,16.84,76.972,24.61,117.333,22.656h128c31.097-1.726,61.59-9.304,89.877-22.336
	c3.742-1.762,6.128-5.528,6.123-9.664C511.663,316.029,506.103,302.143,496.341,291.421z"/>
<g>
	<path style="fill:#FFC107;" d="M224,234.525c-5.891,0.011-10.675-4.757-10.686-10.648c-0.005-2.84,1.123-5.565,3.134-7.571
		l21.333-21.333c4.092-4.237,10.845-4.355,15.083-0.262c4.237,4.092,4.355,10.845,0.262,15.083
		c-0.086,0.089-0.173,0.176-0.262,0.262l-21.333,21.333C229.535,233.391,226.827,234.519,224,234.525z"/>
	<path style="fill:#FFC107;" d="M266.667,277.192c-5.891,0.011-10.675-4.757-10.686-10.648c-0.005-2.84,1.123-5.565,3.134-7.571
		l21.333-21.333c4.237-4.092,10.99-3.975,15.083,0.262c3.992,4.134,3.992,10.687,0,14.82l-21.333,21.333
		C272.202,276.058,269.493,277.186,266.667,277.192z"/>
</g>
<path d="M416,362.525H288c-40.361,1.955-80.602-5.815-117.333-22.656v11.989c0,5.891-4.776,10.667-10.667,10.667H21.333
	c-5.891,0-10.667-4.776-10.667-10.667v-40.981C4.015,289.599,0.424,267.482,0,245.192c1.192-17.432,5.902-34.443,13.845-50.005
	c5.333-12.416,10.88-25.259,8.363-31.104c-2.34-5.406,0.146-11.686,5.553-14.026c2.934-1.27,6.283-1.157,9.125,0.309
	c28.595,13.117,59.656,19.989,91.115,20.16c31.462-0.12,62.533-6.988,91.115-20.139c5.232-2.707,11.668-0.66,14.375,4.573
	c0.068,0.131,0.133,0.264,0.195,0.398c11.328,22.077,25.158,42.778,41.216,61.696c36.352,43.797,132.011,60.139,183.765,60.139
	c13.977-0.617,27.596,4.526,37.675,14.229c9.766,10.719,15.328,24.607,15.659,39.104c-0.011,4.12-2.395,7.866-6.123,9.621
	C477.595,353.199,447.101,360.792,416,362.525z M160,309.192c2.95-0.002,5.769,1.219,7.787,3.371
	c0.171,0.192,29.419,28.629,120.213,28.629h128c25.502-1.363,50.559-7.243,74.005-17.365c-1.948-15.486-15.79-26.662-31.339-25.301
	c-40.021,0-154.005-12.181-200.213-67.861c-14.841-17.712-27.99-36.774-39.275-56.939c-28.959,11.8-59.908,17.955-91.179,18.133
	c-28.96-0.161-57.662-5.448-84.779-15.616c-2.337,9.436-5.617,18.613-9.792,27.392c-6.692,12.936-10.801,27.051-12.096,41.557
	c0.481,20.566,3.886,40.959,10.112,60.565c0.372,1.107,0.559,2.267,0.555,3.435v32h117.333v-21.333
	C149.333,313.968,154.109,309.192,160,309.192z"/>
<path d="M224,234.525c-5.891,0.011-10.675-4.757-10.686-10.648c-0.005-2.84,1.123-5.565,3.134-7.571l21.333-21.333
	c4.092-4.237,10.845-4.355,15.083-0.262c4.237,4.092,4.355,10.845,0.262,15.083c-0.086,0.089-0.173,0.176-0.262,0.262
	l-21.333,21.333C229.535,233.391,226.827,234.519,224,234.525z"/>
<path d="M266.667,277.192c-5.891,0.011-10.675-4.757-10.686-10.648c-0.005-2.84,1.123-5.565,3.134-7.571l21.333-21.333
	c4.237-4.092,10.99-3.975,15.083,0.262c3.992,4.134,3.992,10.687,0,14.82l-21.333,21.333
	C272.202,276.058,269.493,277.186,266.667,277.192z"/>
<g>
</g>
<g>
</g>
<g>
</g>
<g>
</g>
<g>
</g>
<g>
</g>
<g>
</g>
<g>
</g>
<g>
</g>
<g>
</g>
<g>
</g>
<g>
</g>
<g>
</g>
<g>
</g>
<g>
</g>
</svg>
