<?xml version="1.0" encoding="iso-8859-1"?>
<!-- Generator: Adobe Illustrator 19.0.0, SVG Export Plug-In . SVG Version: 6.00 Build 0)  -->
<svg version="1.1" id="Capa_1" xmlns="http://www.w3.org/2000/svg" xmlns:xlink="http://www.w3.org/1999/xlink" x="0px" y="0px"
	 viewBox="0 0 512.028 512.028" style="enable-background:new 0 0 512.028 512.028;" xml:space="preserve">
<path style="fill:#546E7A;" d="M288.037,352.016c-5.891,0-10.667-4.776-10.667-10.667c0-5.312-6.592-10.667-21.333-10.667
	c-14.741,0-21.333,5.355-21.333,10.667c0,5.891-4.776,10.667-10.667,10.667c-5.891,0-10.667-4.776-10.667-10.667
	c0-15.936,13.205-32,42.667-32c29.461,0,42.667,16.064,42.667,32C298.703,347.241,293.928,352.016,288.037,352.016z"/>
<path style="fill:#607D8B;" d="M32.037,256.016c-5.891-0.002-10.665-4.78-10.663-10.671c0.001-2.049,0.592-4.055,1.703-5.777
	l85.163-132.48c14.13-21.983,43.405-28.35,65.388-14.22c7.158,4.601,12.942,11.046,16.745,18.658l21.867,43.733
	c2.633,5.272,0.494,11.681-4.779,14.315c-5.272,2.633-11.681,0.494-14.315-4.779l0,0l-21.845-43.733
	c-7.425-12.896-23.898-17.331-36.794-9.906c-3.268,1.881-6.104,4.428-8.326,7.474L40.997,251.131
	C39.033,254.175,35.659,256.015,32.037,256.016z"/>
<path style="fill:#455A64;" d="M505.231,278.075c-38.895-14.025-79.852-21.48-121.195-22.059c-32.529,0.601-64.825,5.625-96,14.933
	c-10.411,3.257-21.137,5.402-32,6.4c-10.863-0.998-21.589-3.143-32-6.4c-31.175-9.309-63.471-14.333-96-14.933
	c-41.342,0.579-82.3,8.033-121.195,22.059c-5.499,2.114-8.243,8.285-6.129,13.784c1.51,3.929,5.19,6.602,9.393,6.824
	c3.052-0.126,6.011,1.063,8.128,3.264c6.016,6.827,4.672,25.109,3.797,37.184c-0.341,4.821-0.661,9.237-0.661,12.8
	c0,27.819,22.464,74.752,106.667,74.752c66.133,0,90.517-35.051,99.157-55.915c9.859-24.921,9.452-52.732-1.131-77.355
	c19.52,6.127,40.448,6.127,59.968,0c-10.583,24.623-10.989,52.433-1.131,77.355c8.619,20.864,33.003,55.915,99.136,55.915
	c84.203,0,106.667-46.933,106.667-74.667c0-3.669-0.32-8.085-0.661-12.8c-0.896-12.075-2.133-30.357,3.797-37.184
	c2.102-2.233,5.063-3.453,8.128-3.349c5.881-0.348,10.366-5.398,10.018-11.278c-0.246-4.16-2.892-7.795-6.775-9.308L505.231,278.075
	z"/>
<path style="fill:#607D8B;" d="M480.037,256.016c-3.63,0.006-7.014-1.835-8.981-4.885L385.893,118.63
	c-7.75-12.078-23.824-15.587-35.902-7.837c-3.942,2.53-7.127,6.078-9.218,10.269l-21.867,43.733
	c-2.633,5.272-9.042,7.412-14.315,4.779c-5.272-2.633-7.412-9.042-4.779-14.315l21.867-43.733
	c11.679-23.378,40.098-32.861,63.476-21.182c7.612,3.803,14.057,9.587,18.658,16.745l85.184,132.501
	c3.181,4.958,1.741,11.557-3.218,14.738C484.065,255.427,482.073,256.013,480.037,256.016z"/>
<path d="M32.037,256.016c-5.891,0.01-10.674-4.758-10.684-10.649c-0.003-2.057,0.588-4.07,1.703-5.799l85.163-132.48
	C122.361,85.1,151.652,78.74,173.64,92.883c7.15,4.599,12.93,11.039,16.732,18.643l21.867,43.733
	c2.633,5.272,0.494,11.681-4.779,14.315c-5.272,2.633-11.681,0.494-14.315-4.779l0,0l-21.867-43.755
	c-6.424-12.833-22.034-18.028-34.867-11.604c-4.175,2.09-7.709,5.266-10.232,9.194L41.018,251.131
	C39.05,254.182,35.667,256.022,32.037,256.016z"/>
<path d="M384.037,426.683c-66.133,0-90.517-35.029-99.157-55.915c-9.857-24.923-9.442-52.736,1.152-77.355
	c-19.52,6.127-40.448,6.127-59.968,0c10.594,24.619,11.009,52.431,1.152,77.355c-8.661,20.885-33.045,55.915-99.179,55.915
	c-84.203,0-106.667-46.933-106.667-74.667c0-3.648,0.32-8.085,0.661-12.8c0.875-12.075,2.133-30.357-3.819-37.205
	c-2.101-2.219-5.052-3.431-8.107-3.328c-5.881-0.348-10.366-5.398-10.018-11.278c0.246-4.16,2.892-7.795,6.775-9.308
	c38.89-14.018,79.838-21.48,121.173-22.08c32.529,0.606,64.824,5.63,96,14.933c10.409,3.264,21.136,5.409,32,6.4
	c10.864-0.991,21.591-3.136,32-6.4c31.176-9.303,63.471-14.327,96-14.933c41.341,0.591,82.297,8.046,121.195,22.059
	c5.489,2.139,8.205,8.323,6.066,13.812c-1.513,3.883-5.149,6.529-9.308,6.775c-3.052-0.126-6.011,1.063-8.128,3.264
	c-6.016,6.848-4.693,25.109-3.819,37.205c0.363,4.8,0.661,9.237,0.661,12.8C490.703,379.75,468.239,426.683,384.037,426.683z
	 M316.09,285.712c-17.369,21.667-21.767,50.991-11.52,76.8c8.085,19.499,28.416,42.667,79.467,42.667
	c82.944,0,85.333-47.872,85.333-53.333c0-3.221-0.299-7.104-0.597-11.349c-3.162-16.877-0.821-34.324,6.677-49.771
	c-29.742-8.497-60.483-12.996-91.413-13.376C361.139,277.48,338.335,280.286,316.09,285.712L316.09,285.712z M36.623,290.896
	c7.498,15.447,9.839,32.893,6.677,49.771c-0.32,4.267-0.597,8.128-0.597,11.349c0,5.461,2.389,53.333,85.333,53.333
	c51.051,0,71.381-23.253,79.467-42.667c10.247-25.809,5.849-55.133-11.52-76.8c-22.239-5.484-45.043-8.348-67.947-8.533
	C97.099,277.785,66.357,282.341,36.623,290.896z"/>
<path d="M288.037,352.016c-5.891,0-10.667-4.776-10.667-10.667c0-5.312-6.613-10.667-21.333-10.667
	c-14.72,0-21.333,5.355-21.333,10.667c0,5.891-4.776,10.667-10.667,10.667c-5.891,0-10.667-4.776-10.667-10.667
	c0-15.936,13.184-32,42.667-32s42.667,16.064,42.667,32C298.703,347.241,293.928,352.016,288.037,352.016z"/>
<path d="M480.037,256.016c-3.63,0.006-7.014-1.835-8.981-4.885L385.871,118.63c-7.747-12.066-23.808-15.568-35.874-7.821
	c-3.935,2.526-7.115,6.069-9.203,10.253l-21.867,43.733c-2.633,5.272-9.042,7.412-14.315,4.779
	c-5.272-2.633-7.412-9.042-4.779-14.315l21.867-43.733c11.686-23.374,40.107-32.85,63.482-21.164
	c7.61,3.804,14.053,9.59,18.652,16.748l85.184,132.48c3.181,4.958,1.741,11.557-3.218,14.738
	C484.08,255.431,482.08,256.017,480.037,256.016z"/>
<g>
</g>
<g>
</g>
<g>
</g>
<g>
</g>
<g>
</g>
<g>
</g>
<g>
</g>
<g>
</g>
<g>
</g>
<g>
</g>
<g>
</g>
<g>
</g>
<g>
</g>
<g>
</g>
<g>
</g>
</svg>
