<?xml version="1.0" encoding="iso-8859-1"?>
<!-- Generator: Adobe Illustrator 19.0.0, SVG Export Plug-In . SVG Version: 6.00 Build 0)  -->
<svg version="1.1" fill="#18a5aa" id="Layer_1" xmlns="http://www.w3.org/2000/svg" xmlns:xlink="http://www.w3.org/1999/xlink" x="0px" y="0px"
	 viewBox="0 0 511.999 511.999" style="enable-background:new 0 0 511.999 511.999;" xml:space="preserve">
<g>
	<g>
		<path d="M473.193,290.514l-32.795-18.934l32.15-12.596l-12.181-31.09l-56.974,22.322l-71.595-41.335l71.596-41.336l56.972,22.323
			l12.181-31.09l-32.15-12.597l32.795-18.934l-16.696-28.917l-32.795,18.934l5.166-34.143l-33.015-4.995l-9.154,60.502
			l-71.595,41.335V97.292l47.819-38.178L342.088,33.02l-26.986,21.544V16.696h-33.391v37.867l-26.985-21.544l-20.833,26.095
			l47.819,38.177v82.671l-71.757-41.429V69.781C209.955,31.304,178.651,0,140.173,0c-38.478,0-69.782,31.304-69.782,69.781v267.345
			c-20.169,19.111-31.585,45.467-31.585,73.506c0,55.894,45.472,101.366,101.367,101.366c55.894,0,101.366-45.472,101.366-101.366
			c0-28.04-11.415-54.396-31.584-73.507v-57.902l71.757-41.429v82.672l-47.819,38.177l20.834,26.095l26.985-21.544v37.867h33.391
			v-37.868l26.986,21.544l20.834-26.094l-47.819-38.179v-82.67l71.595,41.336l9.154,60.501l33.015-4.995l-5.166-34.141
			l32.795,18.934L473.193,290.514z M140.173,441.971c-17.307,0-31.338-14.03-31.338-31.338c0-11.168,5.847-20.965,14.642-26.515
			V90.157h33.391v293.961c8.795,5.55,14.642,15.347,14.642,26.515C171.511,427.941,157.479,441.971,140.173,441.971z
			 M209.955,240.67v-63.578l55.061,31.79L209.955,240.67z"/>
	</g>
</g>
<g>
</g>
<g>
</g>
<g>
</g>
<g>
</g>
<g>
</g>
<g>
</g>
<g>
</g>
<g>
</g>
<g>
</g>
<g>
</g>
<g>
</g>
<g>
</g>
<g>
</g>
<g>
</g>
<g>
</g>
</svg>
