<svg height="511pt" viewBox="-118 1 511 511.999" width="511pt" xmlns="http://www.w3.org/2000/svg"><g fill-rule="evenodd"><path d="m272.09375 297.746094-105.617188-105.617188-14.628906-114.222656 27.878906-23.378906c2.191407-1.835938 3.492188-4.523438 3.570313-7.382813s-1.070313-5.613281-3.15625-7.570312l-39.304687-36.867188c-1.855469-1.738281-4.300782-2.707031-6.84375-2.707031h-71.925782c-2.539062 0-4.984375.96875-6.839844 2.707031l-39.308593 36.867188c-2.085938 1.957031-3.234375 4.710937-3.152344 7.570312.078125 2.859375 1.378906 5.546875 3.566406 7.382813l27.878907 23.378906-16.386719 127.980469c-.703125 5.480469 3.171875 10.488281 8.648437 11.1875.429688.058593.859375.082031 1.28125.082031 4.957032 0 9.261719-3.683594 9.90625-8.726562l14.761719-115.25 29.183594 24.472656c1.855469 1.558594 4.140625 2.335937 6.425781 2.335937 2.28125 0 4.566406-.777343 6.425781-2.335937l29.183594-24.476563 22.882813 178.691407.199218 1.574218 18.273438 142.675782-76.964844 72.171874-76.964844-72.171874 16.433594-128.328126c.703125-5.480468-3.171875-10.488281-8.648438-11.191406-5.46875-.710937-10.488281 3.171875-11.1875 8.648438l-17.082031 133.398437c-.410156 3.183594.734375 6.371094 3.078125 8.566407l87.53125 82.082031c1.921875 1.804687 4.382813 2.707031 6.839844 2.707031s4.917969-.902344 6.839844-2.707031l87.53125-82.082031c2.339844-2.195313 3.488281-5.382813 3.078125-8.566407l-15.199219-118.695312 44.804688 44.808593c1.875 1.875 4.417968 2.925782 7.070312 2.925782h32.867188c5.523437 0 10-4.476563 10-10v-32.863282c0-2.652343-1.054688-5.195312-2.929688-7.074218zm-174.0625-200.808594-60.207031-50.488281 28.199219-26.449219h64.015624l28.199219 26.449219zm156.992188 230.746094h-18.722657l-60.171875-60.171875-5.5-42.945313 84.394532 84.394532zm0 0"/><path d="m42.664062 246.835938c0-5.507813-4.492187-10-10-10-5.507812 0-10 4.492187-10 10 0 5.507812 4.492188 10 10 10 5.507813 0 10-4.492188 10-10zm0 0"/></g></svg>